<svg xmlns="http://www.w3.org/2000/svg" width="414.365" height="414.365" viewBox="0 0 414.365 414.365">
  <g id="Grupo_14081" data-name="Grupo 14081" transform="translate(-270.373 -3701.373)">
    <rect id="Rect치ngulo_2303" data-name="Rect치ngulo 2303" width="261" height="261" rx="30" transform="translate(293 3908.555) rotate(-45)" fill="#fff"/>
    <g id="Grupo_13743" data-name="Grupo 13743" transform="translate(379 3855.17)">
      <g id="Grupo_13742" data-name="Grupo 13742" transform="translate(0)">
        <path id="Trazado_5523" data-name="Trazado 5523" d="M-3850.118,2585.692a5.183,5.183,0,0,1-3.893,2c-6.745.764-13.476,1.649-20.21,2.51a10.778,10.778,0,0,1-11.99-7.169c-.181-.484-.724-1.164-1.125-1.182-2.4-.112-4.8-.055-7.2-.055.852.968,1.575,1.834,2.344,2.656a9.032,9.032,0,0,1,.844,11.484c-3.781,5.448-7.476,6.841-14.2,5.482-.483-.1-1.213.4-1.651.8-2,1.868-3.746,4.074-5.949,5.644a9.357,9.357,0,0,1-8.664.9,1.762,1.762,0,0,0-2.253.68,49.454,49.454,0,0,1-4.148,4.53,10.059,10.059,0,0,1-7.983,2.571,2.738,2.738,0,0,1-2.79-2.83c-.1-1.82.96-3.059,2.559-2.965,4.385.258,5.935-3.142,8.4-5.822-2.151-1.936-4.174-3.775-6.219-5.588-1.286-1.14-1.878-2.458-1.008-4.081.949-1.772,2.951-2.011,4.755-.527,2.819,2.321,5.554,4.743,8.377,7.06,2.948,2.42,5.513,2.161,8.033-.723.925-1.058,1.822-2.141,2.866-3.372-1.946-1.753-3.833-3.45-5.716-5.149a27.438,27.438,0,0,1-2.115-1.952,2.769,2.769,0,0,1-.136-3.847,2.69,2.69,0,0,1,3.939-.478c1.979,1.52,3.824,3.215,5.738,4.82,1.522,1.276,3.018,2.587,4.6,3.78,4.1,3.083,8.158-.193,9.1-3.653.264-.968-.76-2.694-1.687-3.517-7.567-6.725-15.248-13.324-22.9-19.951-4.167-3.608-8.322-7.23-12.55-10.766a6.137,6.137,0,0,0-2.831-1.315,29.291,29.291,0,0,1-12.763-5.462c-.613-.446-1.22-.9-1.958-1.441-1.769,2.289-3.482,4.51-5.2,6.729-6.182,7.982-14.607,10.613-24.238,7.569-5.591-1.767-7.734-6.957-4.816-12.033q9.765-16.989,19.691-33.886a14.145,14.145,0,0,1,11.738-7.3c3.449-.248,6.886-.663,10.33-.992,2.38-.228,3.855.765,4.109,2.742.214,1.664-.92,2.862-3.314,3.158q-5.141.636-10.314,1a8.481,8.481,0,0,0-7.258,4.3q-9.859,16.935-19.686,33.888c-1.023,1.767-.638,2.635,1.29,3.366a14.555,14.555,0,0,0,16.426-4.075c2.7-3.162,5.146-6.548,7.709-9.829,2.154-2.757,3.658-2.874,6.169-.5a23.713,23.713,0,0,0,12.149,6.562c5.876,1.072,10.88-.916,15.317-4.516,2.176-1.766,3.951-4.02,6.084-5.848a4.875,4.875,0,0,1,3.311-1.287c2.443.349,3.032,3.158,1.246,5.246-4.377,5.116-9.278,9.546-16.014,11.808a10.542,10.542,0,0,0,.93,1.081q8.8,7.605,17.618,15.194c.746.644,1.464,1.411,2.411.339,2.928-3.317,6.985-3.361,10.91-3.793,1.272-.14,2.542-.333,3.819-.4,1.216-.066,1.51-.7,1.376-1.777q-1.417-11.324-2.814-22.65c-.712-5.709-1.483-11.413-2.11-17.131-.14-1.281-.594-1.833-1.768-1.483-4.818,1.437-8.664-.754-12.542-3.126-3.22-1.969-6.606-3.669-9.843-5.614-2.894-1.74-5.862-2.819-9.295-2.076a15.179,15.179,0,0,1-2.3.127c-2.3.135-3.777-.8-3.877-2.466-.119-1.97,1.2-3.065,3.531-3.485a21.408,21.408,0,0,1,16.261,3.466c3.14,2.081,6.7,3.544,9.8,5.668a9.575,9.575,0,0,0,8.448,1.386c1.344-2.725,2.215-5.287,3.731-7.382,2.26-3.123,5.958-3.428,9.486-3.849q9.158-1.093,18.309-2.24c2.131-.263,3.583.518,3.935,2.153.378,1.757-.62,3.249-2.844,3.59-4.805.736-9.641,1.274-14.467,1.88-2.285.287-4.582.5-6.862.827a4.9,4.9,0,0,0-4.422,5.858q2.838,23.055,5.658,46.113c.619,5.014,1.284,10.023,1.961,15.03a4.83,4.83,0,0,0,5.668,4.11c6.652-.882,13.313-1.691,19.977-2.471,1.97-.231,3.845.023,4.962,2.014Z" transform="translate(4046.971 -2504.582)" fill="#004c97"/>
        <path id="Trazado_5524" data-name="Trazado 5524" d="M-4036.19,2617.31c-6.214-.066-9.019-2.073-11.132-7.7a1.828,1.828,0,0,0-1.344-.892c-5.344-.343-8.467-2.708-10.094-7.647a1.813,1.813,0,0,0-1.186-1.078c-8.453-.843-12.066-6.173-9.633-14.617-2.363-.164-4.682-.386-7.005-.437a2.3,2.3,0,0,0-1.461.959,10.735,10.735,0,0,1-10.484,4.26c-6.864-.856-13.725-1.73-20.592-2.558-1.662-.2-3.106-.71-3.359-2.546-.247-1.79.718-2.836,2.483-3.307a1.9,1.9,0,0,0,.926-1.383c1.486-11.527,2.915-23.061,4.367-34.591q2.06-16.348,4.131-32.693a22.777,22.777,0,0,0,.014-2.655,7.386,7.386,0,0,0-.679-.391,2.683,2.683,0,0,1-1.629-3.463,2.8,2.8,0,0,1,3.312-2c2.928.327,5.847.726,8.771,1.085,4.323.531,8.656.984,12.967,1.6,6.064.863,9.835,5.65,9.4,11.767-.036.5-.095,1-.172,1.811,2.974.2,5.875.435,8.781.536.365.012.871-.625,1.115-1.068.954-1.739,1.8-3.537,2.74-5.283,2.7-5.012,7.4-7.135,12.909-5.811,1.927.463,3.836,1.016,5.734,1.59,2.136.646,3,2.022,2.506,3.852-.435,1.609-1.937,2.308-4.077,1.791-1.678-.406-3.321-.952-4.992-1.387-3.475-.9-5.46-.027-7.121,3.133-1.221,2.323-2.436,4.652-3.587,7.011a3.624,3.624,0,0,1-4.034,2.2c-3.06-.286-6.139-.367-9.206-.6-1.131-.085-1.529.264-1.673,1.441q-2.969,24.5-6.038,48.991c-.062.5-.051,1.018-.085,1.789,3.342.244,6.633.507,9.93.694.374.021.8-.351,1.155-.6,5.739-4,12.283-2.389,15.531,3.831.115.221.266.424.387.614,7.582-.969,10.393.384,13.56,6.569,3.423-.782,6.814-.571,9.487,1.948,1.39,1.31,2.2,3.22,3.353,4.8.335.46.938,1.031,1.42,1.032,4.379.014,7.769,1.783,9.683,5.728,1.933,3.983,1.353,7.837-1.415,11.327q-2.684,3.384-5.362,6.773c-2.6,3.285-5.933,4.866-10.117,4.041-4.25-.839-6.82-3.551-7.925-7.7C-4036,2617.838-4036.092,2617.6-4036.19,2617.31Zm20.076-8.864c-.093-1.988-.755-3.332-2.343-3.972-1.573-.634-3.288-.692-4.428.7-2.381,2.916-4.642,5.938-6.791,9.028a3.817,3.817,0,0,0-.314,2.733,3.913,3.913,0,0,0,6.778,1.708c2.363-2.672,4.394-5.643,6.5-8.531A5.4,5.4,0,0,0-4016.114,2608.446Zm-11.871-8.077c.022-2.261-.794-3.519-2.434-4.247a3.487,3.487,0,0,0-4.347.933c-2.162,2.6-4.22,5.291-6.128,8.076a3.64,3.64,0,0,0-.488,3.017,6.613,6.613,0,0,0,2.84,3,3.416,3.416,0,0,0,4.095-1.3q2.978-3.75,5.781-7.635A5.9,5.9,0,0,0-4027.985,2600.369Zm-20.89,2.471c.886-.437,2.026-.658,2.609-1.349a61.5,61.5,0,0,0,5.021-6.726c1.04-1.644.332-3.671-1.284-4.893-1.366-1.032-3.781-1.092-4.925.226a44.1,44.1,0,0,0-5.037,6.708C-4054.073,2599.551-4052.1,2602.556-4048.875,2602.841Zm-9.663-19.778a5.9,5.9,0,0,0-.985.188c-1.8.578-4.733,4.377-4.887,6.292a3.832,3.832,0,0,0,2.277,4.063,3.537,3.537,0,0,0,4.4-.743,19.562,19.562,0,0,0,3.089-4.124C-4053.261,2586.135-4055.262,2583.084-4058.538,2583.063Zm-33.276-11.257a2.667,2.667,0,0,0-2.622-2.537,2.739,2.739,0,0,0-2.646,2.737,2.688,2.688,0,0,0,2.653,2.511A2.623,2.623,0,0,0-4091.814,2571.806Z" transform="translate(4112.517 -2504.547)" fill="#004c97"/>
        <path id="Trazado_5525" data-name="Trazado 5525" d="M-3759.906,2635a8.63,8.63,0,0,1,8.667-8.465,8.615,8.615,0,0,1,8.418,8.714,8.545,8.545,0,0,1-8.56,8.551A8.646,8.646,0,0,1-3759.906,2635Zm8.62,2.741a2.686,2.686,0,0,0,2.568-2.592,2.725,2.725,0,0,0-2.724-2.651,2.725,2.725,0,0,0-2.566,2.616A2.681,2.681,0,0,0-3751.287,2637.741Z" transform="translate(3929.757 -2567.773)" fill="#004c97"/>
      </g>
      <path id="Trazado_5526" data-name="Trazado 5526" d="M-4072.04,2582.863c-1.956,2.962-4.514,4.113-7.64,3.654-5-.735-10-1.485-15.005-2.194-1.211-.172-.011-5.77.036-6.207,1.083-9.887,2.124-19.78,3.183-29.67q1.5-14.021,3.01-28.042l.742-7.3c2.133.281,4.26.623,6.391.931,3.15.456,6.308.844,9.449,1.371,4.419.74,7.166,4.845,6.848,10.093-.026.431-.682,6.895-.786,7.9q-2.164,21.016-4.4,42.023C-4070.257,2575.861-4071.788,2582.48-4072.04,2582.863Zm-11.066-8.448a2.377,2.377,0,0,0-2.369-2.226,2.436,2.436,0,0,0-2.391,2.4,2.4,2.4,0,0,0,2.4,2.2A2.332,2.332,0,0,0-4083.106,2574.415Z" transform="translate(4103.555 -2506.782)" fill="#6cc24a"/>
    </g>
    <g id="Rect치ngulo_2453" data-name="Rect치ngulo 2453" transform="translate(270.373 3908.555) rotate(-45)" fill="none" stroke="#6cc24a" stroke-width="6">
      <rect width="293" height="293" rx="48" stroke="none"/>
      <rect x="3" y="3" width="287" height="287" rx="45" fill="none"/>
    </g>
  </g>
</svg>
