<svg id="Grupo_13739" data-name="Grupo 13739" xmlns="http://www.w3.org/2000/svg" width="57.737" height="57.707" viewBox="0 0 57.737 57.707">
  <path id="Trazado_5353" data-name="Trazado 5353" d="M-10.254,971.672a18.218,18.218,0,0,1,3.175-3.561,41.8,41.8,0,0,1,15.418-9.155,31.833,31.833,0,0,1,11.179-1.693,34.538,34.538,0,0,1,12.687,2.975,41.828,41.828,0,0,1,13.171,8.99c.553.56,1.075,1.154,1.576,1.761a1.735,1.735,0,0,1,0,2.495,35.427,35.427,0,0,1-7.024,6.377,39.6,39.6,0,0,1-15.944,6.87,31.214,31.214,0,0,1-15.055-1.04,41.219,41.219,0,0,1-17.1-10.4,12.7,12.7,0,0,1-2.09-2.5Zm28.847-10.893a11.456,11.456,0,1,0,11.444,11.482A11.475,11.475,0,0,0,18.593,960.779Zm12.123,20.23c.258-.084.33-.1.4-.13.207-.088.415-.173.618-.271a42.17,42.17,0,0,0,11.2-7.929c.353-.344.365-.534.007-.886a41.314,41.314,0,0,0-11.246-7.952c-.262-.124-.532-.233-.8-.348a15.877,15.877,0,0,1,2.671,8.736A14.926,14.926,0,0,1,30.716,981.009ZM6.375,963.466a23.394,23.394,0,0,0-3.024,1.473,42.529,42.529,0,0,0-9.181,6.917c-.305.3-.309.486.006.762.52.458,1,.958,1.516,1.425a39.882,39.882,0,0,0,9.967,6.666,1.126,1.126,0,0,0,.663.206C2.673,975.113,2.672,969.355,6.375,963.466Z" transform="translate(10.254 -943.401)" fill="#004c97"/>
  <path id="Trazado_5354" data-name="Trazado 5354" d="M232.072,834.576a1.975,1.975,0,0,1,1.182,2.041c-.046,1.179,0,2.362-.015,3.543a1.733,1.733,0,1,1-3.46,0c-.01-1.181.033-2.364-.015-3.543a1.973,1.973,0,0,1,1.182-2.04Z" transform="translate(-202.674 -834.576)" fill="#004c97"/>
  <path id="Trazado_5355" data-name="Trazado 5355" d="M114.507,856.233a1.643,1.643,0,0,1,1.377.866c.772,1.327,1.542,2.654,2.276,4a1.742,1.742,0,0,1-3.009,1.755c-.81-1.347-1.6-2.708-2.329-4.1A1.742,1.742,0,0,1,114.507,856.233Z" transform="translate(-98.753 -853.789)" fill="#004c97"/>
  <path id="Trazado_5356" data-name="Trazado 5356" d="M330.52,856.235a1.736,1.736,0,0,1,1.785,2.368,37.794,37.794,0,0,1-2.5,4.4,1.731,1.731,0,0,1-2.973-1.721c.775-1.478,1.62-2.921,2.477-4.353A1.462,1.462,0,0,1,330.52,856.235Z" transform="translate(-288.643 -853.791)" fill="#004c97"/>
  <path id="Trazado_5357" data-name="Trazado 5357" d="M114.436,1265.287a1.742,1.742,0,0,1-1.769-2.376,40.19,40.19,0,0,1,2.5-4.39,1.69,1.69,0,0,1,2.21-.476,1.669,1.669,0,0,1,.775,2.168c-.776,1.493-1.63,2.947-2.5,4.391A1.45,1.45,0,0,1,114.436,1265.287Z" transform="translate(-98.659 -1210.061)" fill="#004c97"/>
  <path id="Trazado_5358" data-name="Trazado 5358" d="M330.657,1265.263a1.635,1.635,0,0,1-1.332-.854c-.775-1.329-1.546-2.661-2.283-4.012a1.743,1.743,0,0,1,3.017-1.744c.8,1.334,1.587,2.682,2.31,4.061A1.749,1.749,0,0,1,330.657,1265.263Z" transform="translate(-288.78 -1210.041)" fill="#004c97"/>
  <path id="Trazado_5359" data-name="Trazado 5359" d="M229.873,1283.614c0-.674-.012-1.349,0-2.023a1.754,1.754,0,0,1,1.734-1.706,1.734,1.734,0,0,1,1.717,1.665q.036,2.078,0,4.158a1.673,1.673,0,0,1-1.729,1.629,1.7,1.7,0,0,1-1.721-1.644c0-.038,0-.075,0-.112Q229.872,1284.6,229.873,1283.614Z" transform="translate(-202.77 -1229.63)" fill="#004c97"/>
  <path id="Trazado_5360" data-name="Trazado 5360" d="M193.584,1044.239a5.83,5.83,0,1,1,5.8,5.83A5.873,5.873,0,0,1,193.584,1044.239Zm5.841-2.323a2.323,2.323,0,1,0,2.312,2.362A2.392,2.392,0,0,0,199.425,1041.916Z" transform="translate(-170.58 -1015.404)" fill="#004c97"/>
</svg>
