<svg xmlns="http://www.w3.org/2000/svg" width="414.365" height="414.365" viewBox="0 0 414.365 414.365">
  <g id="Grupo_14082" data-name="Grupo 14082" transform="translate(-752.818 -3701.373)">
    <rect id="Rect치ngulo_2304" data-name="Rect치ngulo 2304" width="261" height="261" rx="30" transform="translate(774 3908.555) rotate(-45)" fill="#fff"/>
    <g id="Grupo_13739" data-name="Grupo 13739" transform="translate(893 3826)">
      <path id="Trazado_5515" data-name="Trazado 5515" d="M-3433.218,2471.757c.936.235,1.88.439,2.805.709a17.872,17.872,0,0,1,9.243,5.98,14.484,14.484,0,0,0,9.427,5.417,18.526,18.526,0,0,1,15.146,15.364,14.035,14.035,0,0,0,5.081,8.91,18.487,18.487,0,0,1,5.663,21.36,13.919,13.919,0,0,0,0,9.952c2.965,8.12.765,16.05-5.909,21.579a11.788,11.788,0,0,0-4.52,7.264,20.161,20.161,0,0,1-6.714,12.681c.312.563.587,1.078.879,1.583q9.635,16.7,19.274,33.4c.27.468.561.925.808,1.4a3.146,3.146,0,0,1-.267,3.648,3.127,3.127,0,0,1-3.483,1.1q-8.446-2.264-16.894-4.52c-.359-.1-.728-.153-1.239-.257-1,3.683-1.99,7.315-2.971,10.95-.562,2.084-1.153,4.162-1.653,6.261-.394,1.65-1.123,2.98-2.938,3.241s-2.846-.84-3.7-2.316q-10.583-18.4-21.205-36.773a3.093,3.093,0,0,0-2.531-1.874,22.527,22.527,0,0,1-4.341-1.256,12.231,12.231,0,0,0-7.177-.253c-2.03.537-4.069,1.055-6.056,1.723a2.911,2.911,0,0,0-1.253,1.337q-10.6,18.294-21.163,36.611c-.135.234-.272.467-.4.705a3.335,3.335,0,0,1-3.5,2.1c-1.743-.218-2.533-1.436-2.951-3.028-1.289-4.906-2.61-9.8-3.923-14.7-.235-.877-.491-1.749-.78-2.777-4.043,1.073-7.993,2.117-11.94,3.169-1.773.473-3.551.933-5.31,1.453-1.665.493-3.23.588-4.4-.975s-.554-3.014.309-4.5q9.023-15.557,17.991-31.146c.729-1.263,2.052-2.552,2-3.785-.045-1.14-1.562-2.221-2.433-3.327a18.393,18.393,0,0,1-3.8-8.827,12.992,12.992,0,0,0-4.921-8.465,17.506,17.506,0,0,1-6.9-13.4,24.522,24.522,0,0,1,1.169-7.924,15.032,15.032,0,0,0-.038-10.116,18.57,18.57,0,0,1,5.739-21.35,13.834,13.834,0,0,0,4.988-8.608,18.625,18.625,0,0,1,15.893-15.751,12.471,12.471,0,0,0,8.011-4.486,18.931,18.931,0,0,1,12.238-7.258,1.374,1.374,0,0,0,.41-.234h4.867a56.16,56.16,0,0,0,6.466,1.89,16.513,16.513,0,0,0,5.577.018,54.111,54.111,0,0,0,6.45-1.908Zm42.226,51.706c-.158-4.5-1.441-7.729-4.344-10.055a20.774,20.774,0,0,1-7.763-13.556,11.754,11.754,0,0,0-9.617-9.566,20.9,20.9,0,0,1-13.437-7.667,11.77,11.77,0,0,0-13.645-3.569,20.288,20.288,0,0,1-14.85.042,11.91,11.91,0,0,0-13.894,3.691,20.358,20.358,0,0,1-12.706,7.409,12.032,12.032,0,0,0-10.375,10.517,19.366,19.366,0,0,1-6.9,12.1c-4.822,4.033-6.135,8.9-3.976,14.8a19.311,19.311,0,0,1,.04,13.624c-2.179,6.043-.938,10.793,3.983,14.937a19.378,19.378,0,0,1,6.863,12.12,12.2,12.2,0,0,0,10.423,10.5,19.544,19.544,0,0,1,12.261,6.928c4.1,4.861,8.877,6.116,14.807,3.968a19.372,19.372,0,0,1,13.777.031c5.754,2.128,10.768.778,14.681-3.93a19.4,19.4,0,0,1,11.75-6.907c6.563-1.218,9.931-4.572,11.107-11.138a18.946,18.946,0,0,1,6.688-11.505c4.973-4.189,6.254-8.936,4.024-15.076a19.077,19.077,0,0,1,.013-13.459A37.219,37.219,0,0,0-3390.993,2523.463Zm-39.227,72.958,17.159,29.7c.193-.634.259-.83.313-1.03,1.079-4.013,2.148-8.028,3.238-12.037.692-2.543,2.163-3.394,4.738-2.744,1.413.357,2.81.772,4.219,1.145,2.888.764,5.78,1.516,8.983,2.355l-16.994-29.414c-1.679.347-3.1.65-4.529.934a11.313,11.313,0,0,0-6.816,3.778A20.986,20.986,0,0,1-3430.22,2596.421Zm-72.575,17.441c4.586-1.236,8.791-2.38,13-3.5,2.847-.759,4.244.07,5.019,2.934l3.476,12.872,17.134-29.664c-3.521-1.149-6.695-2.724-8.772-5.557-3.247-4.429-7.8-5.809-12.921-6.418Z" transform="translate(3512.74 -2471.757)" fill="#004c97"/>
      <path id="Trazado_5516" data-name="Trazado 5516" d="M-3383.613,2557.8a42.272,42.272,0,0,1-37.162,41.922c-26.039,3.147-48.953-18.314-47.062-44.513,1.215-16.838,9.959-28.846,25.237-36.063a10.9,10.9,0,0,1,1.51-.581,3.216,3.216,0,0,1,3.906,1.76,3.151,3.151,0,0,1-1.191,3.987,12.353,12.353,0,0,1-1.747.842,35.6,35.6,0,0,0-20.981,38,35.9,35.9,0,0,0,30.627,30.073,35.8,35.8,0,0,0,39.029-25.652,35.611,35.611,0,0,0-20.009-42.429c-.3-.13-.6-.239-.9-.373-1.978-.891-2.777-2.536-2.092-4.295a3.263,3.263,0,0,1,4.573-1.707,41.906,41.906,0,0,1,16.662,12.274A42.064,42.064,0,0,1-3383.613,2557.8Z" transform="translate(3491.36 -2494.029)" fill="#004c97"/>
      <path id="Trazado_5517" data-name="Trazado 5517" d="M-3414.681,2567.688c4.484-4.489,8.8-8.81,13.113-13.126,2.478-2.478,3.9-2.463,6.405.046q4.3,4.3,8.6,8.607c2.024,2.036,2.028,3.666,0,5.7q-12.609,12.623-25.233,25.229c-2.057,2.055-3.663,2.071-5.694.045q-8.958-8.933-17.892-17.89c-1.965-1.969-1.968-3.619-.02-5.58q4.573-4.6,9.176-9.173c1.86-1.845,3.584-1.841,5.476.026C-3418.758,2563.541-3416.8,2565.552-3414.681,2567.688Zm-13.9,5.6,14.027,14.028,21.234-21.248-5.313-5.326c-4.291,4.308-8.669,8.716-13.06,13.111-2.171,2.173-3.782,2.176-5.936.017-1.934-1.938-3.846-3.9-5.753-5.834Z" transform="translate(3476.525 -2510.398)" fill="#004c97"/>
      <path id="Trazado_5518" data-name="Trazado 5518" d="M-3390.114,2513.226a3.189,3.189,0,0,1,3.1,3.288,3.292,3.292,0,0,1-3.283,3.149,3.293,3.293,0,0,1-3.177-3.415A3.2,3.2,0,0,1-3390.114,2513.226Z" transform="translate(3455.818 -2491.549)" fill="#004c97"/>
      <path id="Trazado_5519" data-name="Trazado 5519" d="M-3421.011,2580.625l5.2-5.253c1.907,1.936,3.819,3.9,5.753,5.834,2.154,2.159,3.765,2.156,5.936-.017,4.391-4.4,8.77-8.8,13.06-13.111l5.313,5.326-21.234,21.249Z" transform="translate(3468.958 -2517.731)" fill="#6cc24a"/>
    </g>
    <g id="Rect치ngulo_2452" data-name="Rect치ngulo 2452" transform="translate(752.818 3908.555) rotate(-45)" fill="none" stroke="#6cc24a" stroke-width="6">
      <rect width="293" height="293" rx="48" stroke="none"/>
      <rect x="3" y="3" width="287" height="287" rx="45" fill="none"/>
    </g>
  </g>
</svg>
