<svg id="Grupo_13738" data-name="Grupo 13738" xmlns="http://www.w3.org/2000/svg" width="54.203" height="54.197" viewBox="0 0 54.203 54.197">
  <path id="Trazado_5349" data-name="Trazado 5349" d="M-662.832,834.576a33.916,33.916,0,0,1,4.569.813c.442.121.888.231,1.318.387a1.386,1.386,0,0,1,.92,1.723,1.37,1.37,0,0,1-1.751.943,25.232,25.232,0,0,0-7.818-1.086,23.866,23.866,0,0,0-14.39,5.115,23.833,23.833,0,0,0-9.129,15.581,24.266,24.266,0,0,0,12.334,24.921,23.8,23.8,0,0,0,13.284,2.965,24.268,24.268,0,0,0,22.283-19.489,23.849,23.849,0,0,0-.49-11.554c-.049-.169-.1-.339-.139-.51a1.386,1.386,0,0,1,.958-1.745,1.375,1.375,0,0,1,1.719.927,19.74,19.74,0,0,1,.782,3.125,26.632,26.632,0,0,1-5.306,21.663,25.91,25.91,0,0,1-17.174,10.08,26.367,26.367,0,0,1-23.956-8.218,26.2,26.2,0,0,1-7.142-15.084c-.056-.418-.115-.835-.173-1.252v-4.443c.14-.956.218-1.926.43-2.866q3.691-16.393,19.814-21.166a28.937,28.937,0,0,1,4.616-.827Z" transform="translate(692.134 -834.576)" fill="#6cc24a"/>
  <path id="Trazado_5350" data-name="Trazado 5350" d="M-595.772,913.229a16.019,16.019,0,0,0-15.8,13.372A16.145,16.145,0,0,0-599,945.079a16.155,16.155,0,0,0,19.2-12.895,17.483,17.483,0,0,0,.2-3.949,1.441,1.441,0,0,1,.58-1.342,1.314,1.314,0,0,1,1.4-.136,1.443,1.443,0,0,1,.835,1.309,17.815,17.815,0,0,1-2.246,10.277,18.573,18.573,0,0,1-12.885,9.52,18.95,18.95,0,0,1-20.214-9.2,18.657,18.657,0,0,1-2.459-10.347,18.939,18.939,0,0,1,15.634-17.681,15.144,15.144,0,0,1,4.521-.219,1.5,1.5,0,0,1,1.374,1.587,1.324,1.324,0,0,1-1.5,1.223C-594.962,913.227-595.367,913.229-595.772,913.229Z" transform="translate(622.831 -902.304)" fill="#6cc24a"/>
  <path id="Trazado_5351" data-name="Trazado 5351" d="M-439.664,871.347c0-.7.006-1.41,0-2.114a1.646,1.646,0,0,1,.5-1.234q3.963-3.96,7.924-7.923a1.377,1.377,0,0,1,1.585-.394,1.432,1.432,0,0,1,.916,1.418c.02,1.092.023,2.185,0,3.277-.009.44.148.587.583.578,1.092-.021,2.185-.018,3.277,0a1.429,1.429,0,0,1,1.415.92,1.386,1.386,0,0,1-.4,1.585l-.149.15q-3.812,3.812-7.62,7.629a2.01,2.01,0,0,1-1.549.65c-1.321-.023-2.643.005-3.964-.014a1.182,1.182,0,0,0-.927.391q-4.193,4.216-8.4,8.414a1.763,1.763,0,0,1-.96.614,1.389,1.389,0,0,1-1.512-.723,1.408,1.408,0,0,1,.3-1.694q2.382-2.4,4.781-4.787c1.283-1.283,2.562-2.571,3.854-3.846a1.05,1.05,0,0,0,.346-.839C-439.678,872.722-439.665,872.034-439.664,871.347Zm8.122-6.75-.19-.029-4.972,4.956a.631.631,0,0,0-.149.49c0,.863.014,1.727-.006,2.589-.009.383.156.483.506.476q1.241-.024,2.484,0a.95.95,0,0,0,.742-.318c1.514-1.525,3.037-3.041,4.554-4.564.088-.088.252-.154.176-.352-.61-.028-1.226-.03-1.835-.091a1.3,1.3,0,0,1-1.3-1.331C-431.579,865.817-431.542,865.206-431.542,864.6Z" transform="translate(474.864 -856.924)" fill="#6cc24a"/>
  <path id="Trazado_5352" data-name="Trazado 5352" d="M-527.308,1005.8a7.978,7.978,0,0,0,8.02-7.819,1.455,1.455,0,0,1,1.457-1.6c.817.02,1.343.667,1.356,1.633a9.546,9.546,0,0,1-.239,2.1,10.909,10.909,0,0,1-9.957,8.5,10.844,10.844,0,0,1-11.409-9.47,10.831,10.831,0,0,1,9.171-12.091,8.935,8.935,0,0,1,1.527-.1,1.419,1.419,0,0,1,1.474,1.353,1.4,1.4,0,0,1-1.388,1.441,10.4,10.4,0,0,0-2.19.311,8.066,8.066,0,0,0-5.841,8.413,8.144,8.144,0,0,0,6.5,7.208A8.037,8.037,0,0,0-527.308,1005.8Z" transform="translate(554.487 -970.8)" fill="#6cc24a"/>
</svg>
