<svg xmlns="http://www.w3.org/2000/svg" width="414.365" height="414.365" viewBox="0 0 414.365 414.365">
  <g id="Grupo_14083" data-name="Grupo 14083" transform="translate(-1272.373 -3701.373)">
    <rect id="Rect치ngulo_2305" data-name="Rect치ngulo 2305" width="261" height="261" rx="30" transform="translate(1295 3908.555) rotate(-45)" fill="#fff"/>
    <g id="Grupo_13741" data-name="Grupo 13741" transform="translate(1394 3825)">
      <circle id="Elipse_303" data-name="Elipse 303" cx="31.1" cy="31.1" r="31.1" transform="translate(46.693 2.995)" fill="#6cc24a"/>
      <g id="Grupo_13740" data-name="Grupo 13740">
        <path id="Trazado_5520" data-name="Trazado 5520" d="M-4577.73,2574.224a3.97,3.97,0,0,1,3.176-1.784,12.245,12.245,0,0,0,9.119-5.48c-.62-.179-1.1-.288-1.552-.454a38.688,38.688,0,0,1-4.517-1.716c-4.289-2.207-5.416-5.894-3.086-9.7,2.529-4.128,6.912-5.085,10.748-2.294a12.037,12.037,0,0,1,4.835,8.821,1.849,1.849,0,0,0,.584,1.264,12.894,12.894,0,0,0,.418-1.427c2.6-14.8,10.448-25.959,23.293-33.661,1.656-.992,3.152-.754,3.925.581.784,1.354.321,2.674-1.421,3.724-8.537,5.144-15.11,12.064-18.479,21.533-4.908,13.793-4.639,27.5,1.985,40.744a41.131,41.131,0,0,0,17.514,17.694,7.366,7.366,0,0,1,4.075,5.822c.814,5.116,1.956,10.178,2.887,15.277a1.72,1.72,0,0,0,2.006,1.679c3.4-.05,6.809-.066,10.212.007,1.354.029,1.879-.543,2.089-1.8.459-2.747,1.023-5.477,1.527-8.218.591-3.208,1.958-4.383,5.169-4.076a109.171,109.171,0,0,0,26.2-.593c2.49-.362,4.193,1.033,4.709,3.663.589,3.008,1.206,6.013,1.68,9.041.222,1.42.772,2.024,2.271,1.984,3.291-.088,6.587-.1,9.876,0,1.534.049,2.037-.637,2.284-1.995,1.066-5.867,2.229-11.717,3.288-17.585a4.753,4.753,0,0,1,2.656-3.6c8.448-4.472,15.515-10.453,20.4-18.8a7.9,7.9,0,0,1,4.72-3.509q4.945-1.548,9.875-3.136c3.025-.97,3.961-2.238,3.967-5.362.006-3.46.015-6.92,0-10.38a4.392,4.392,0,0,0-3.416-4.735c-2-.679-4.019-1.333-6.044-1.943a8.409,8.409,0,0,1-5.924-5.838,39.24,39.24,0,0,0-6.58-12.326c-.331-.422-.7-.814-1.178-1.369-.3.67-.548,1.15-.744,1.65-2.341,5.976-6.938,8.439-13.118,8.408-11.414-.059-19.715-8.144-19.9-19.529-.05-2.99.333-5.987.532-9.23-1.13-.265-2.457-.613-3.8-.859a1.182,1.182,0,0,0-.956.427,35.4,35.4,0,0,1-9.887,9.513c1.53.485,2.795.858,4.042,1.286,1.769.606,2.471,1.774,2.013,3.265-.435,1.418-1.792,2.033-3.561,1.459a66.623,66.623,0,0,0-20.4-3.274,65.671,65.671,0,0,0-19.939,2.969c-.531.166-1.066.332-1.609.45a2.362,2.362,0,0,1-2.946-1.563,2.419,2.419,0,0,1,1.481-3.137c.716-.3,1.479-.491,2.224-.722.679-.211,1.361-.409,2.25-.674-.5-.4-.809-.672-1.148-.912a34.015,34.015,0,0,1-13.833-35.4,34.148,34.148,0,0,1,28.057-26.252,34.143,34.143,0,0,1,35.071,17.329q1.713,3.149-.545,4.353c-1.429.76-2.645.126-3.818-1.882-5.949-10.186-14.832-15.345-26.626-15.144-13.379.229-25.068,10.45-27.5,23.8-2.449,13.438,5,27.106,17.5,32.028a5.548,5.548,0,0,0,2.6.268,72.63,72.63,0,0,1,17.03-.013,5.971,5.971,0,0,0,3.049-.459c10.434-4.849,16.267-13.011,17.384-24.49.137-1.407.391-2.706,2.024-3.076a2.4,2.4,0,0,1,3,2.633,32.309,32.309,0,0,1-2.441,11.215c-.14.356-.271.717-.476,1.261,2.445.357,4.476,1.548,7.193.192a83.553,83.553,0,0,1,20.028-7.362c.544-.115,1.1-.2,1.648-.269,5.5-.711,7.958,1.131,8.811,6.734.918,6.033.316,12.01-.742,17.974a2.916,2.916,0,0,0,.561,2.179,46.18,46.18,0,0,1,9.952,16.872,3.953,3.953,0,0,0,2.828,2.791q3.2.949,6.366,2.037a9.28,9.28,0,0,1,6.5,8.989q.051,5.776,0,11.552a9.246,9.246,0,0,1-6.514,8.973c-3.533,1.2-7.123,2.236-10.636,3.489a4.895,4.895,0,0,0-2.417,1.84c-5.115,8.438-12.255,14.677-20.8,19.409a2.89,2.89,0,0,0-1.645,2.26c-.995,5.6-2.076,11.178-3.163,16.758-.687,3.531-2.951,5.384-6.569,5.408s-7.255.029-10.882,0a6.113,6.113,0,0,1-6.409-5.193c-.338-1.523-.614-3.06-.91-4.593s-.576-3.046-.8-4.212h-26.43c-.539,2.8-1.072,5.53-1.585,8.262-.721,3.837-2.936,5.721-6.813,5.739-3.4.016-6.808.01-10.212,0-4.116-.01-6.322-1.849-7.082-5.846-.988-5.2-1.969-10.4-3.042-15.588a2.933,2.933,0,0,0-1.248-1.743c-13.586-7.892-22.1-19.385-24.628-34.991-.718-4.435-.753-8.979-1.128-13.81-.594-.412-1.006.177-1.509.97-2.623,4.131-6.03,7.3-10.925,8.515a21.667,21.667,0,0,1-2.642.369,3.194,3.194,0,0,1-3.449-1.806Zm141.461-49.4c-.094-1.01-.19-3.016-.486-4.994-.382-2.55-.8-2.817-3.3-2.34-7.338,1.4-14.106,4.415-20.82,7.535a3.485,3.485,0,0,0-1.638,2.3,43.486,43.486,0,0,0-.667,7.793c.228,8.559,6.755,14.507,15.3,14.25,3.974-.12,6.7-1.717,8.193-5.586A55.822,55.822,0,0,0-4436.269,2524.826Zm-127.673,37.533c-.454-2.883-1.328-4.883-3.62-5.934-1.516-.7-2.221.427-2.881,1.489-.685,1.1-.1,1.854.847,2.265C-4567.886,2560.924-4566.116,2561.53-4563.941,2562.359Z" transform="translate(4577.73 -2471.757)" fill="#004c97"/>
        <path id="Trazado_5521" data-name="Trazado 5521" d="M-4439.163,2504.387l1.812-1.839,2.052,2.08a32.037,32.037,0,0,1,4.7,1.317,3.131,3.131,0,0,1,1.588,2.194c.159,1.726-1.289,2.519-2.922,1.881-1.272-.5-2.571-.924-4.126-1.479,0,3.1-.019,5.82.028,8.538a1.294,1.294,0,0,0,.614.834,12.9,12.9,0,0,0,1.521.679c4.3,1.969,6.208,5.049,5.8,9.342-.411,4.359-2.623,6.814-7.235,8.026-.206.054-.413.1-.621.155l.344.363-1.782,2.07-1.769-1.889.28-.226a29.889,29.889,0,0,1-4.942-1.367,11.143,11.143,0,0,1-3.5-2.7c-.938-1.047-.588-2.335.4-3.3,1.039-1.019,1.866-.224,2.787.362,1.6,1.018,3.287,1.9,4.936,2.845l.486-.426c0-3.254.021-6.509-.04-9.763-.005-.28-.522-.635-.874-.808-1-.489-2.057-.855-3.049-1.354a7.33,7.33,0,0,1-4.338-7.61,7.337,7.337,0,0,1,5.445-6.862c.889-.3,1.811-.489,2.719-.729Zm2.9,18.377v8.857a3.807,3.807,0,0,0,3.752-3.586C-4432.208,2525.615-4433.482,2523.779-4436.262,2522.764Zm-2.2-6.135V2509c-2.538.168-4,1.345-4.152,3.3C-4442.777,2514.4-4441.322,2515.958-4438.462,2516.628Z" transform="translate(4515.746 -2486.453)" fill="#004c97"/>
        <path id="Trazado_5522" data-name="Trazado 5522" d="M-4325.405,2652.572a8.168,8.168,0,0,1-8.106-7.574,2.56,2.56,0,0,1,2.079-2.957,2.431,2.431,0,0,1,2.881,2.3c.365,2.118,1.444,3.228,3.156,3.247,1.728.019,2.856-1.1,3.2-3.175.281-1.686,1.327-2.564,2.836-2.381a2.52,2.52,0,0,1,2.15,2.892A8.147,8.147,0,0,1-4325.405,2652.572Z" transform="translate(4461.17 -2553.016)" fill="#004c97"/>
      </g>
    </g>
    <g id="Rect치ngulo_2451" data-name="Rect치ngulo 2451" transform="translate(1272.373 3908.555) rotate(-45)" fill="none" stroke="#6cc24a" stroke-width="6">
      <rect width="293" height="293" rx="48" stroke="none"/>
      <rect x="3" y="3" width="287" height="287" rx="45" fill="none"/>
    </g>
  </g>
</svg>
