<svg xmlns="http://www.w3.org/2000/svg" width="176.768" height="143.822" viewBox="0 0 176.768 143.822">
  <g id="Grupo_13717" data-name="Grupo 13717" transform="translate(3045.01 568.399)" opacity="0.2">
    <path id="Trazado_5512" data-name="Trazado 5512" d="M-3045.01-528.847q44.469-.007,88.938,0c.471,0,.941.007,1.411,0,3.257-.062,4.869-1.567,4.876-4.646.018-8.673,0-17.347.02-26.019a8.96,8.96,0,0,1,.317-2.63,5.559,5.559,0,0,1,8.4-2.76,14.766,14.766,0,0,1,1.96,1.671q32.447,30.66,64.867,61.347a48.591,48.591,0,0,1,3.483,4.082v2.669a45.662,45.662,0,0,1-3.362,3.968q-32.589,30.88-65.273,61.67a9.081,9.081,0,0,1-4.131,2.3c-3.434.695-6.248-2-6.26-5.729-.026-8.673-.007-17.347-.012-26.019a12.258,12.258,0,0,0-.073-1.83,3.866,3.866,0,0,0-3.6-3.342,20.028,20.028,0,0,0-2.289-.084q-44.116-.006-88.233,0" transform="translate(0)" fill="none" stroke="#6cc24a" stroke-miterlimit="10" stroke-width="5"/>
  </g>
</svg>
