<svg id="Grupo_13541" data-name="Grupo 13541" xmlns="http://www.w3.org/2000/svg" width="129.287" height="103.996" viewBox="0 0 129.287 103.996">
  <path id="Trazado_5284" data-name="Trazado 5284" d="M2219.274,774.955c1.833.144,2.7-1.045,3.312-2.486,2.213-5.246,4.392-10.508,6.58-15.765q5.532-13.284,11.045-26.573c.29-.7.609-1.041,1.411-.963a12.067,12.067,0,0,0,2.642-.005c.962-.122,1.319.334,1.649,1.131q8.76,21.191,17.551,42.37a3.386,3.386,0,0,0,2.6,2.305c1.13.225.466,1.178.586,1.794s-.43.489-.777.489c-4.1.008-8.208-.02-12.312.023-.938.01-.749-.582-.687-1.051s-.475-1.358.683-1.273a2.87,2.87,0,0,0,.459-.015c1.509-.126,1.7-.413,1.141-1.784-1.21-2.974-2.448-5.938-3.637-8.92a1.04,1.04,0,0,0-1.144-.8q-8.86.048-17.72.007a.972.972,0,0,0-1.08.74c-1.116,2.888-2.3,5.747-3.427,8.63-.688,1.764-.479,2.112,1.423,2.125,1.3.008.658.9.781,1.436.153.66-.094.919-.84.91-3.413-.044-6.827-.02-10.241-.02Zm22.354-35.568c-2.559,6.331-4.977,12.345-7.433,18.344-.335.819.144.687.607.687q6.9,0,13.791-.007c.2,0,.465.112.64-.255C2246.752,752.031,2244.25,745.857,2241.628,739.387Z" transform="translate(-2219.274 -698.762)" fill="#fff"/>
  <path id="Trazado_5285" data-name="Trazado 5285" d="M2233.677,818.525a2.982,2.982,0,0,0,.51-1.984c-.038-1.816-.013-3.632-.013-5.5.792-.235,1.306.163,1.667,1.126.573,1.53,1.3,3,2.05,4.707.736-1.721,1.438-3.221,2.014-4.769.34-.916.835-1.289,1.643-1.042,0,2.087-.146,4.148.054,6.175.125,1.25-.322,1.226-1.157,1.033a28.051,28.051,0,0,0-.037-5.752c-.725,1.7-1.44,3.407-2.182,5.1-.113.256-.123.68-.515.684s-.4-.423-.519-.678c-.734-1.632-1.44-3.276-2.355-4.9,0,1.648.008,3.3-.005,4.943,0,.386.519.458.458.856Z" transform="translate(-2221.474 -714.529)" fill="#fff"/>
  <path id="Trazado_5286" data-name="Trazado 5286" d="M2323.089,818.531a62.923,62.923,0,0,0,.2-7.443,11.341,11.341,0,0,1,3.315.108,3.275,3.275,0,0,1,2.671,3.406,3.356,3.356,0,0,1-2.5,3.539c-.532.173-1.155-.072-1.6.39Zm2.028-6.905c-.44-.024-.9-.021-.885.743.033,1.567.025,3.135,0,4.7-.009.574.281.715.773.733a2.97,2.97,0,0,0,3.256-3.066A2.9,2.9,0,0,0,2325.117,811.626Z" transform="translate(-2241.066 -714.536)" fill="#fff"/>
  <path id="Trazado_5287" data-name="Trazado 5287" d="M2224.166,818.528c.674-2.452.243-4.909.279-7.483.542-.173,1.053.075,1.513.791a50.308,50.308,0,0,0,3.241,4.461,22.348,22.348,0,0,0-.025-5.234h1c-.469,2.484-.051,4.987-.251,7.464h-.461l-4.116-5.916c.015,2.045-.672,4.028.2,5.916Z" transform="translate(-2220.021 -714.532)" fill="#fff"/>
  <path id="Trazado_5288" data-name="Trazado 5288" d="M2292.439,818.546a5.6,5.6,0,0,0-2.288-3.418c-.262-.226-.764-.279-.777.226a6.4,6.4,0,0,0,.191,2.929c-.145.024-.287.059-.431.069-.633.047-.978.143-.87-.883a61.178,61.178,0,0,0,.066-6.343c.774,0,1.73-.042,2.682.012a1.759,1.759,0,0,1,1.835,1.567,1.705,1.705,0,0,1-1.258,1.936,2.429,2.429,0,0,0-.336.228,20.994,20.994,0,0,1,2.3,3.014c.354.48-.246.422-.191.663Zm-3.122-5.47c.233.434-.5,1.393.752,1.331,1.009-.051,1.74-.613,1.774-1.429.035-.833-.57-1.283-1.634-1.347C2288.974,811.556,2289.438,812.457,2289.317,813.076Z" transform="translate(-2233.729 -714.55)" fill="#fff"/>
  <path id="Trazado_5289" data-name="Trazado 5289" d="M2371.5,818.535a8.1,8.1,0,0,0-2.075-3.127c-.25-.241-.52-.516-.9-.406-.478.139-.283.579-.274.883a6.168,6.168,0,0,0,.18,2.386c-.106.113-.349.043-.571.076-.624.092-.705-.069-.669-.748.106-1.989.07-3.989,0-5.98-.017-.456-.048-.6.442-.577.651.036,1.307-.011,1.956.033,1.017.069,1.92.369,2.127,1.539s-.475,1.769-1.582,2.149a27.987,27.987,0,0,1,2.254,3.039c.323.486-.1.5-.2.733Zm-3.3-5.434c.313.378-.517,1.308.683,1.295a1.743,1.743,0,0,0,1.885-1.468c.008-.789-.663-1.257-1.707-1.307C2367.765,811.558,2368.417,812.531,2368.2,813.1Z" transform="translate(-2250.773 -714.539)" fill="#fff"/>
  <path id="Trazado_5290" data-name="Trazado 5290" d="M2247.379,818.511a4.157,4.157,0,0,1-2.33-4.613,3.339,3.339,0,0,1,3.331-3.013,3.388,3.388,0,0,1,3.394,3.084,3.979,3.979,0,0,1-2.553,4.542Zm3.411-4.2a3.614,3.614,0,0,0-.731-2.035,2.058,2.058,0,0,0-3.04-.287,4.057,4.057,0,0,0-.045,5.331,1.879,1.879,0,0,0,1.23.536C2249.794,817.947,2250.814,816.693,2250.791,814.315Z" transform="translate(-2224.68 -714.516)" fill="#fff"/>
  <path id="Trazado_5291" data-name="Trazado 5291" d="M2300.789,818.528c-.344-.643.417-.8.578-1.246.64-1.793,1.423-3.537,2.187-5.284.166-.38.127-1.029.748-1,.587.025.554.662.736,1.045.946,1.989,1.508,4.149,2.711,6.024.2.311-.371.194-.282.462h-1.382c.1-.142-.166-.218-.006-.46.326-.5-.278-1.838-.8-1.858a6.984,6.984,0,0,0-2.721.12c-.572.226-.7,1.2-.654,1.95,0,.079-.125.164-.191.247Zm3.3-6.24c-.228.506-.38.807-.5,1.12-.9,2.249-.9,2.25,1.541,2.144.06,0,.117-.064.225-.127Z" transform="translate(-2236.399 -714.533)" fill="#fff"/>
  <path id="Trazado_5292" data-name="Trazado 5292" d="M2283.277,818.526c-.174-.258.088-.436.11-.639a1.582,1.582,0,0,0-1.608-1.692c-.72.019-1.586-.29-2.113.148a1.736,1.736,0,0,0-.55,1.828c.078.268-.71.042-1.106.2.945-2.268,1.843-4.444,2.767-6.609.135-.317.149-.818.693-.779.455.032.46.469.591.76.94,2.082,1.625,4.275,2.739,6.281.13.234-.159.319-.142.505Zm-2.072-6.2c-.333.776-.59,1.352-.828,1.934-.532,1.31-.528,1.312.878,1.31,1.3,0,1.312,0,.83-1.2C2281.835,813.753,2281.558,813.142,2281.205,812.325Z" transform="translate(-2231.62 -714.53)" fill="#fff"/>
  <path id="Trazado_5293" data-name="Trazado 5293" d="M2377.089,818.529a3.119,3.119,0,0,1-1.866-3.412,18.033,18.033,0,0,0-.1-4.026,2.78,2.78,0,0,1,1.1-.021c0,1.715-.051,3.413.021,5.107a1.577,1.577,0,0,0,1.445,1.658c.943.109,1.9-.039,2.16-1.053a16.589,16.589,0,0,0,.082-5.728c.2-.159.592.1.954-.051a17.507,17.507,0,0,0-.131,4.064c.038,1.622-.35,2.911-2.054,3.464Z" transform="translate(-2251.985 -714.533)" fill="#fff"/>
  <path id="Trazado_5294" data-name="Trazado 5294" d="M2352.44,818.547c.153-.238.429-.472.436-.715a57.7,57.7,0,0,0-.037-6.687,24.939,24.939,0,0,1,2.736.02,1.825,1.825,0,0,1,1.821,1.961,1.9,1.9,0,0,1-1.79,2.015.494.494,0,0,0-.112.023c-.516.235-1.463-.336-1.562.444-.124.974-.476,2.139.581,2.939Zm1.345-5.479c.4.486-.594,1.594.833,1.571,1.118-.018,1.763-.536,1.772-1.491s-.709-1.536-1.877-1.519C2353.261,811.646,2354.16,812.626,2353.785,813.067Z" transform="translate(-2248.522 -714.551)" fill="#fff"/>
  <path id="Trazado_5295" data-name="Trazado 5295" d="M2311.458,818.514c-.739-.335-1.6-.6-1.015-1.8a2.135,2.135,0,0,0,1.84,1.15,1.366,1.366,0,0,0,1.355-.862,1.141,1.141,0,0,0-.483-1.406c-.517-.387-1.1-.69-1.641-1.04a1.965,1.965,0,0,1-1.1-2.388,2.087,2.087,0,0,1,2.565-1.2c.579.136,1.732-.1,1.135,1.268-.453-.163-.776-.629-1.3-.71a1.309,1.309,0,0,0-1.48.613c-.317.58.043,1.029.492,1.372a11.619,11.619,0,0,0,1.149.751c.912.541,1.755,1.125,1.7,2.359-.047,1.181-1.017,1.463-1.841,1.887Z" transform="translate(-2238.303 -714.518)" fill="#fff"/>
  <path id="Trazado_5296" data-name="Trazado 5296" d="M2219.546,818.545a1.319,1.319,0,0,0,.5-.928c-.007-2.021,0-4.041-.016-6.061a1.4,1.4,0,0,0-.2-.453h1.4a27.747,27.747,0,0,0-.169,5.156c-.026.8-.21,1.669.56,2.287Z" transform="translate(-2219.315 -714.549)" fill="#fff"/>
  <path id="Trazado_5297" data-name="Trazado 5297" d="M2328.1,719.566c-.424.019-.725.044-1.028.044-5.486,0-10.973-.008-16.459.014a2.815,2.815,0,0,1-1.8-.594c-6.765-5.04-13.551-10.05-20.3-15.105a1.3,1.3,0,0,0-1.87.01q-15.172,11.3-30.388,22.551c-.277.2-.56.4-.953.679-.941-2.138-1.917-4.207-2.76-6.328a1.673,1.673,0,0,0-1.963-1.247c-1.139.1-2.294.023-3.437.023-.1-.48.277-.564.491-.728q19.47-14.871,38.936-29.748a1.362,1.362,0,0,1,2.017-.008c4.664,3.621,9.367,7.19,14.06,10.775.3.23.618.444.921.661.381-.233.219-.574.219-.846.013-2.954.041-5.907-.01-8.859-.016-.907.166-1.276,1.178-1.252,2.991.069,5.986.052,8.977.006.805-.013,1.032.212,1.027,1.021-.034,5.829,0,11.659-.041,17.489a2.066,2.066,0,0,0,.955,1.888c3.774,2.827,7.511,5.706,11.255,8.573A2.412,2.412,0,0,1,2328.1,719.566Z" transform="translate(-2227.203 -688.686)" fill="#fff"/>
  <path id="Trazado_5298" data-name="Trazado 5298" d="M2336.234,777.358c-5.065,0-10.131-.023-15.2.022-.866.008-1.042-.3-.954-1.047.073-.619-.282-1.345.928-1.312,2.07.056,2.292-.208,2.3-2.3q.024-19.1.008-38.207c0-.153-.015-.306-.024-.459-.1-1.681-.237-1.922-1.872-1.877-1.139.031-1.408-.308-1.365-1.4.034-.861.331-.975,1.076-.968,3.76.034,7.521.015,11.282.015,6.14,0,12.28.014,18.419-.016.847,0,1.211.133,1.187,1.109-.059,2.26,0,4.524.072,6.784.02.62-.131.772-.739.777-1.658.013-1.684.05-2-1.543a2.265,2.265,0,0,0-2.116-2.057,15.446,15.446,0,0,0-1.6-.131c-4.643-.01-9.287.013-13.93-.024-.807-.006-1.035.225-1.028,1.03q.055,6.732,0,13.464c-.006.749.189.967.951.96,4.145-.037,8.289-.012,12.433-.02,2.5-.005,2.835-.286,3.2-2.731.2-1.354,1.2-.471,1.8-.66.642-.2.72.255.718.792q-.026,5.122,0,10.242c0,.595-.1,1.05-.792.861-.6-.164-1.578.633-1.747-.755-.3-2.453-.694-2.751-3.158-2.753-4.144,0-8.289.015-12.433-.015-.72-.006-.979.142-.974.93q.058,7.652.006,15.305c0,.791.289,1.151,1.052,1.145,4.795-.037,9.59-.069,14.384-.122a5.674,5.674,0,0,0,5.389-3.789,2.512,2.512,0,0,1,2.782-.943c.318.148.192.377.152.574-.6,2.887-1.216,5.768-1.8,8.658-.135.671-.608.454-.974.455Q2343.948,777.367,2336.234,777.358Z" transform="translate(-2243.575 -698.893)" fill="#fff"/>
  <path id="Trazado_5299" data-name="Trazado 5299" d="M2279.062,771.261q0-2.181,0-4.363c0-.62-.043-1.317.755-1.454a1.4,1.4,0,0,1,1.8.878,11.578,11.578,0,0,0,13.692,6.5c5.693-1.74,7.3-8.064,3.135-12.3a31.634,31.634,0,0,0-7.964-5.381,33.433,33.433,0,0,1-6.844-4.6c-3.677-3.342-5.235-7.484-4.05-12.33,1.124-4.6,4.4-7.3,8.806-8.713a17.365,17.365,0,0,1,10.511.185c1.1.329,2.2.646,3.306.965.493.143.9.161,1.017-.513.2-1.195,1.142-.441,1.727-.6.652-.176.578.386.624.79a62.989,62.989,0,0,1,.635,9.854c-.02.436.363,1.226-.487,1.275-.744.043-1.581.374-2.031-.829a10.678,10.678,0,0,0-10.518-6.878,7.708,7.708,0,0,0-5.319,2.114,5.6,5.6,0,0,0-.409,7.688,24.116,24.116,0,0,0,6.518,5.032c2.878,1.744,5.959,3.161,8.582,5.311,3,2.46,5.159,5.4,5.588,9.418.584,5.451-1.667,9.469-6.211,12.242-4.582,2.8-9.556,3-14.657,1.767-1.488-.358-2.957-.8-4.434-1.2-.5-.136-.9-.281-1.042.54-.183,1.062-1.12.3-1.688.483-.434.143-.713-.075-.708-.6.015-1.761.006-3.523.006-5.284Z" transform="translate(-2232.545 -698.739)" fill="#fff"/>
  <path id="Trazado_5300" data-name="Trazado 5300" d="M2368.3,753.6V735.194c0-.192,0-.383,0-.575-.005-2.311-.156-2.525-2.461-2.46-1.037.03-1.288-.273-1.259-1.273.025-.842.208-1.1,1.087-1.091,4.258.048,8.517.058,12.775,0,.985-.015,1.036.413,1,1.157-.031.661.107,1.224-.951,1.211-2.71-.032-2.746.063-2.746,2.754v37.736c.012,2.176.179,2.347,2.343,2.4,1.226.03,1.75.846,1.339,2.017-.136.387-.41.28-.646.28-4.489.008-8.978-.015-13.467.021-1.061.008-.669-.711-.679-1.177s-.346-1.138.7-1.166c2.969-.081,2.967-.127,2.967-3.132Z" transform="translate(-2250.375 -698.89)" fill="#fff"/>
  <path id="Trazado_5301" data-name="Trazado 5301" d="M2334,798.822c-.627,1.445-1.238,2.9-1.893,4.331-.2.428-.187,1.179-.736,1.168-.512-.01-.53-.75-.729-1.179a34.5,34.5,0,0,0-2.13-4.189c0,1.58,0,3.16,0,4.74,0,.244.242.543-.109.7a.719.719,0,0,1-.561,0c-.358-.2,0-.457,0-.691q.009-2.935.016-5.868a.575.575,0,0,0-.423-.619,1.439,1.439,0,0,1,2.093,1.024c.545,1.506,1.269,2.948,2.041,4.7.7-1.657,1.363-3.092,1.911-4.568.37-1,.871-1.581,2.045-1.192-.357.318-.292.751-.291,1.166,0,1.8.012,3.606.016,5.408,0,.241.188.577-.212.656a1.2,1.2,0,0,1-.78-.04c-.253-.158-.031-.468-.024-.715.042-1.586.021-3.174.021-4.761Z" transform="translate(-2242.068 -712.403)" fill="#fff"/>
  <path id="Trazado_5302" data-name="Trazado 5302" d="M2254.629,811.147c1.112,0,2.106-.039,3.1.012a1.671,1.671,0,0,1,1.7,1.286,1.553,1.553,0,0,1-.9,2c.113.353.452.394.66.583a1.8,1.8,0,0,1-.3,2.92,2.4,2.4,0,0,1-1.191.369c-.88.009-1.956.33-2.586-.064s-.1-1.534-.148-2.346c-.075-1.182-.016-2.371-.021-3.559C2254.945,811.934,2255.027,811.494,2254.629,811.147Zm1.283,5.047c.231.6-.454,1.615.86,1.628,1.1.011,1.971-.623,1.979-1.468.009-.891-.841-1.454-2.076-1.5C2255.394,814.808,2256.2,815.773,2255.912,816.194Zm.022-3.224c.209.451-.462,1.422.766,1.306.841-.079,1.744-.127,1.814-1.282.049-.82-.657-1.293-1.752-1.362C2255.579,811.557,2256.063,812.411,2255.934,812.97Z" transform="translate(-2226.68 -714.553)" fill="#fff"/>
  <path id="Trazado_5303" data-name="Trazado 5303" d="M2281.125,796.413c3.2.876,4.356,2.689,3.511,5.394a3.4,3.4,0,0,1-6.413.045,3.839,3.839,0,0,1,2.3-5.133c.665-.24.2-.906.715-1.185.434-.236.621-1.065,1.209-.9.8.223.078.5-.112.7a7.555,7.555,0,0,1-.614.518C2281.525,796.026,2281.341,796.208,2281.125,796.413Zm2.683,3.983a6.726,6.726,0,0,0-.235-1.494,2.229,2.229,0,0,0-2.139-1.741,2.2,2.2,0,0,0-2.153,1.721,4.791,4.791,0,0,0-.127,2.589,2.372,2.372,0,0,0,2.314,2.124,2.431,2.431,0,0,0,2.245-2.209C2283.774,801.049,2283.78,800.7,2283.808,800.4Z" transform="translate(-2231.613 -712.031)" fill="#fff"/>
  <path id="Trazado_5304" data-name="Trazado 5304" d="M2300.491,797.124a16.444,16.444,0,0,1,3.484.137,3.186,3.186,0,0,1,2.659,3.376,3.283,3.283,0,0,1-2.578,3.576,14.832,14.832,0,0,1-3.432.176A70.4,70.4,0,0,0,2300.491,797.124Zm1.151,3.593c0,.8.007,1.6,0,2.4,0,.382.049.613.534.674a2.879,2.879,0,0,0,3.435-2.547c.208-2.124-.8-3.353-2.768-3.543-.983-.094-1.314.227-1.211,1.183A17.063,17.063,0,0,1,2301.642,800.718Z" transform="translate(-2236.321 -712.41)" fill="#fff"/>
  <path id="Trazado_5305" data-name="Trazado 5305" d="M2238.976,804.452c-2.091-.009-3.4-1.461-3.4-3.762a3.453,3.453,0,1,1,6.871.066C2242.434,803.026,2241.084,804.462,2238.976,804.452Zm2.42-3.621a6.583,6.583,0,0,0-.211-1.5,2.27,2.27,0,0,0-2.216-1.818,2.364,2.364,0,0,0-2.175,1.9,5.067,5.067,0,0,0-.036,2.5,2.418,2.418,0,0,0,2.182,2.038,2.366,2.366,0,0,0,2.319-2.006A8.963,8.963,0,0,0,2241.4,800.83Z" transform="translate(-2221.764 -712.384)" fill="#fff"/>
  <path id="Trazado_5306" data-name="Trazado 5306" d="M2346.261,797.108c.673,0,1.4-.012,2.131,0,1.033.021,2.051.149,2.406,1.332.34,1.133-.064,1.712-1.565,2.423a12.278,12.278,0,0,1,2.476,3.445,1.034,1.034,0,0,1-1.476-.614,7.662,7.662,0,0,0-1.885-2.441.771.771,0,0,0-.733-.22c-.4.087-.271.429-.251.653.082.883-.269,1.816.272,2.678h-1.375Zm1.055,2.028c.313.383-.512,1.289.6,1.333,1.087.043,1.991-.657,1.959-1.49-.044-1.069-.831-1.209-1.682-1.285C2346.9,797.577,2347.507,798.553,2347.317,799.136Z" transform="translate(-2245.89 -712.411)" fill="#fff"/>
  <path id="Trazado_5307" data-name="Trazado 5307" d="M2292.57,802.411c0-1.444-.015-2.888.013-4.33.005-.269-.283-.791.34-.761.564.026.325.519.33.8.022,1.84.02,3.68,0,5.521,0,.264.193.654-.247.772-.377.1-.526-.217-.7-.466q-1.678-2.4-3.362-4.8c-.1-.142-.158-.357-.517-.325,0,1.581.01,3.172-.009,4.763,0,.3.184.8-.325.818-.689.027-.342-.549-.348-.851-.026-1.725-.007-3.45-.017-5.176,0-.407.126-.865-.37-1.168a1.47,1.47,0,0,1,1.945.785c.961,1.517,2.026,2.97,3.049,4.45Z" transform="translate(-2233.559 -712.409)" fill="#fff"/>
  <path id="Trazado_5308" data-name="Trazado 5308" d="M2324.933,798.142a3.289,3.289,0,0,0-3.075-.295c-.659.187-.172,1.293-.265,1.982-.076.565.381.484.692.452.723-.074,1.506.274,2.179-.313a2.4,2.4,0,0,1,.067,1.286c-.824-.6-1.729-.346-2.6-.347-.219,0-.29.169-.346.376-.486,1.763.045,2.5,1.813,2.5.682,0,1.381.086,1.782-.845.184,1.147-.122,1.552-1.135,1.48-1.221-.087-2.453-.021-3.556-.021v-7.293c1.11,0,2.339.036,3.564-.013C2324.812,797.062,2325.14,797.3,2324.933,798.142Z" transform="translate(-2240.458 -712.409)" fill="#fff"/>
  <path id="Trazado_5309" data-name="Trazado 5309" d="M2313.873,798.043a3.718,3.718,0,0,0-3.094-.2c-.616.18-.184,1.307-.233,2.006-.046.651.511.436.83.426.691-.022,1.426.221,2.1-.34v1.221c-.271.2-.341-.171-.536-.22-1.94-.5-2.875.43-2.413,2.406.059.252.132.456.416.424,1.084-.121,2.3.453,3.2-.659.143,1.046-.284,1.378-1.275,1.308-1.179-.082-2.369-.019-3.473-.019v-7.293c1.231,0,2.579.022,3.925-.008C2314.176,797.082,2313.741,797.707,2313.873,798.043Z" transform="translate(-2238.137 -712.41)" fill="#fff"/>
  <path id="Trazado_5310" data-name="Trazado 5310" d="M2359.237,798.073c-.92-.655-1.961-.253-2.948-.319-.316-.02-.3.3-.275.519.07.665-.33,1.732.206,1.91a2.911,2.911,0,0,0,2.747-.278v1.457c-.807-.76-1.75-.431-2.629-.461-.4-.014-.346.355-.322.6.07.746-.384,1.844.2,2.158a4.279,4.279,0,0,0,2.694.025c.164-.033.3-.205.45-.313.209.987.209,1.012-.613,1.024-1.338.02-2.678.005-3.792.005.066-2.437.108-4.832-.037-7.293.995,0,2.254-.005,3.513,0C2359.28,797.115,2359.28,797.123,2359.237,798.073Z" transform="translate(-2248.9 -712.411)" fill="#fff"/>
  <path id="Trazado_5311" data-name="Trazado 5311" d="M2336.187,813.85v1.384c-.847-.676-1.774-.287-2.642-.364a.253.253,0,0,0-.287.273,1.639,1.639,0,0,0-.01.343c.149.751-.465,1.919.341,2.188a2.894,2.894,0,0,0,3.249-.579c.1.859-.057,1.318-1,1.266-1.259-.07-2.522-.018-3.817-.018a25.946,25.946,0,0,0,.033-7.294c1.316,0,2.609.025,3.9-.01.707-.019.74.356.628.935-.918-.586-1.927-.268-2.9-.335-.265-.019-.437.1-.427.393a2.492,2.492,0,0,0,0,.344c.111.613-.353,1.573.267,1.778A2.653,2.653,0,0,0,2336.187,813.85Z" transform="translate(-2242.875 -714.539)" fill="#fff"/>
  <path id="Trazado_5312" data-name="Trazado 5312" d="M2364.439,816.99c.162,1.173-.309,1.423-1.213,1.369-1.178-.069-2.361-.017-3.646-.017a3.342,3.342,0,0,0,.268-2.033,31.948,31.948,0,0,0-.121-4.915c-.092-.513.286-.336.487-.339,1.034-.018,2.071.037,3.1-.022.839-.048,1,.3.774,1.012-.9-.779-1.957-.3-2.937-.391-.236-.023-.248.217-.289.408-.394,1.833-.03,2.27,1.852,2.2a2.706,2.706,0,0,0,.569-.058c.345-.087.381.109.377.367,0,.3-.107.408-.425.3a1.868,1.868,0,0,0-.57-.022c-1.812-.022-1.755-.019-1.826,1.776-.038.967.27,1.284,1.214,1.189C2362.877,817.733,2363.764,817.963,2364.439,816.99Z" transform="translate(-2249.612 -714.538)" fill="#fff"/>
  <path id="Trazado_5313" data-name="Trazado 5313" d="M2258.928,804.356h-1.138c.921-2.189,1.835-4.369,2.757-6.544.139-.328.144-.813.681-.778.45.029.457.449.584.75q1.111,2.64,2.213,5.283a2.192,2.192,0,0,0,.891,1.257h-1.875a1.723,1.723,0,0,0-.671-2.028,3.615,3.615,0,0,0-2.891.033A1.636,1.636,0,0,0,2258.928,804.356Zm.722-2.765h2.647l-1.338-3.3Z" transform="translate(-2227.375 -712.4)" fill="#fff"/>
  <path id="Trazado_5314" data-name="Trazado 5314" d="M2226.592,804.359h-1.55c.24-1.384-.378-2.193-1.667-2.2-1.949,0-1.983-.015-2.606,1.9-.154.474-.42.382-.677.347-.506-.069-.2-.3-.1-.545.87-2.035,1.715-4.081,2.581-6.118.125-.292.141-.712.612-.717s.488.412.615.712Q2225.2,801.041,2226.592,804.359Zm-2.287-2.774-1.33-3.287-1.319,3.287Z" transform="translate(-2219.356 -712.399)" fill="#fff"/>
  <path id="Trazado_5315" data-name="Trazado 5315" d="M2374.721,804.364h-1.564c.26-1.418-.337-2.2-1.658-2.2a2.126,2.126,0,0,1-.459,0c-1.322-.3-1.932.419-2.089,1.576-.1.716-.383.826-.99.6q1.4-3.368,2.8-6.726c.112-.265.171-.609.6-.583.409.025.443.357.558.632C2372.841,799.872,2373.769,802.088,2374.721,804.364Zm-4.9-2.827h2.578a18.252,18.252,0,0,0-1.337-3.141C2370.606,799.546,2370.218,800.528,2369.819,801.537Z" transform="translate(-2250.893 -712.399)" fill="#fff"/>
  <path id="Trazado_5316" data-name="Trazado 5316" d="M2361.972,802.826a2.888,2.888,0,0,0,1.3,1.052,1.441,1.441,0,0,0,1.8-.643,1.218,1.218,0,0,0-.505-1.693c-.569-.384-1.182-.705-1.752-1.088a1.827,1.827,0,0,1-.827-2.29,1.907,1.907,0,0,1,2.144-1.184,4.868,4.868,0,0,0,.569.073c1.075-.014,1.415.5,1.069,1.635a2.408,2.408,0,0,0-1.271-1.072,1.253,1.253,0,0,0-1.6.533c-.345.549-.035,1.045.432,1.384.556.4,1.158.74,1.728,1.124a2.014,2.014,0,0,1-1.217,3.8c-.229-.008-.46-.014-.688-.039C2362.284,804.325,2361.5,804.15,2361.972,802.826Z" transform="translate(-2249.956 -712.389)" fill="#fff"/>
  <path id="Trazado_5317" data-name="Trazado 5317" d="M2377.283,802.791a3.342,3.342,0,0,0,1.248,1.051,1.463,1.463,0,0,0,1.893-.621c.431-.7.053-1.26-.516-1.67s-1.187-.7-1.74-1.1a1.8,1.8,0,0,1-.832-2.276,1.914,1.914,0,0,1,2.249-1.167c.883.139,2.083-.039,1.587,1.636a3.434,3.434,0,0,0-1.35-1.042,1.285,1.285,0,0,0-1.59.586c-.365.587.033,1.044.466,1.373.547.414,1.168.728,1.735,1.118a2.038,2.038,0,0,1,1.035,2.44,2.068,2.068,0,0,1-2.3,1.343c-.23-.011-.459-.025-.689-.039C2377.54,804.359,2376.859,804.072,2377.283,802.791Z" transform="translate(-2252.296 -712.39)" fill="#fff"/>
  <path id="Trazado_5318" data-name="Trazado 5318" d="M2271.94,798.611c-1.309-1.221-2.308-1.414-3.45-.669a3.606,3.606,0,0,0-1.078,4.14c.538,1.548,1.451,1.911,4.293,1.71a3.419,3.419,0,0,1-5.428-1.919c-.737-3.129,1.405-5.32,4.617-4.838C2271.979,797.2,2272.356,797.576,2271.94,798.611Z" transform="translate(-2229.106 -712.39)" fill="#fff"/>
  <path id="Trazado_5319" data-name="Trazado 5319" d="M2251.249,803.7a3.989,3.989,0,0,1-4.668.025,4.157,4.157,0,0,1-.988-4.536,3.492,3.492,0,0,1,3.637-2.239,8.626,8.626,0,0,0,1.022.141c1.206-.064,1.063.646.87,1.6a2.692,2.692,0,0,0-1.718-1.149,2.621,2.621,0,0,0-1.85.466,3.782,3.782,0,0,0-.919,4.2C2247.219,803.705,2248.173,804.037,2251.249,803.7Z" transform="translate(-2224.737 -712.386)" fill="#fff"/>
  <path id="Trazado_5320" data-name="Trazado 5320" d="M2229.178,802.8a6.594,6.594,0,0,0,.762.787,1.559,1.559,0,0,0,2.324-.316c.537-.9-.051-1.434-.711-1.891-.565-.391-1.2-.691-1.737-1.112a1.7,1.7,0,0,1-.658-2.036,1.819,1.819,0,0,1,1.765-1.246,5.092,5.092,0,0,1,1.9.211c.477.2.254.862.364,1.431a12.021,12.021,0,0,0-1.412-.983,1.216,1.216,0,0,0-1.62.462c-.452.626-.033,1.1.428,1.464.51.4,1.1.684,1.638,1.051.881.6,1.515,1.389,1.113,2.512a2.084,2.084,0,0,1-2.312,1.319c-.268-.014-.534-.033-.8-.056C2229.294,804.323,2228.731,803.968,2229.178,802.8Z" transform="translate(-2220.763 -712.394)" fill="#fff"/>
  <path id="Trazado_5321" data-name="Trazado 5321" d="M2339.258,797.1a18.312,18.312,0,0,1,3.091.11,1.855,1.855,0,0,1,1.666,2.094,1.994,1.994,0,0,1-1.795,1.907c-.55.113-1.363-.265-1.6.24a6.44,6.44,0,0,0-.108,2.031c-.029.36.379,1-.492.954-.385-.021-.6.079-.556-.587.146-2.011.089-4.039.083-6.06C2339.55,797.571,2339.368,797.352,2339.258,797.1Zm1.884.557c-.395-.055-.643.05-.621.541a16.571,16.571,0,0,1,0,1.839c-.037.541.268.646.693.669a1.662,1.662,0,0,0,1.845-1.5C2343.082,798.295,2342.307,797.662,2341.142,797.658Z" transform="translate(-2244.387 -712.409)" fill="#fff"/>
  <path id="Trazado_5322" data-name="Trazado 5322" d="M2271.4,817.407c.175.594.2.973-.539.952-1.3-.034-2.592-.009-3.879-.009v-7.268h1.066q0,3.1,0,6.2c0,.486.316.538.694.534A4.739,4.739,0,0,0,2271.4,817.407Z" transform="translate(-2229.255 -714.546)" fill="#fff"/>
  <path id="Trazado_5323" data-name="Trazado 5323" d="M2339.493,818.35v-7.266h1.182c-.237,2.066-.058,4.141-.109,6.212-.013.51.346.524.706.513.9-.03,1.838.181,2.649-.439.253.739.054,1.009-.651.99C2342.007,818.326,2340.742,818.35,2339.493,818.35Z" transform="translate(-2244.424 -714.546)" fill="#fff"/>
  <path id="Trazado_5324" data-name="Trazado 5324" d="M2276.456,797.165c-.627.807-.632,6.373-.017,7.187h-1.6v-7.187Z" transform="translate(-2230.832 -712.42)" fill="#fff"/>
  <path id="Trazado_5325" data-name="Trazado 5325" d="M2255.352,804.377h-1.246c.12-2.393.108-4.793.006-7.226h1.24Z" transform="translate(-2226.514 -712.418)" fill="#fff"/>
  <path id="Trazado_5326" data-name="Trazado 5326" d="M2262.622,811.07h1.224V818.3c-.3.158-.78.016-1.224.014Z" transform="translate(-2228.283 -714.544)" fill="#fff"/>
  <path id="Trazado_5327" data-name="Trazado 5327" d="M2274.034,811.069h1.228V818.3c-.3.155-.783.019-1.228.013Z" transform="translate(-2230.655 -714.544)" fill="#fff"/>
  <path id="Trazado_5328" data-name="Trazado 5328" d="M2298.166,818.31h-1.129v-7.226h1.232C2298.054,813.476,2298.187,815.836,2298.166,818.31Z" transform="translate(-2235.436 -714.546)" fill="#fff"/>
  <path id="Trazado_5329" data-name="Trazado 5329" d="M2377.619,810.375a6.236,6.236,0,0,1,1.359-1.7c.223-.18.519-.253.7.019s-.117.4-.285.511A5.129,5.129,0,0,1,2377.619,810.375Z" transform="translate(-2252.368 -714.154)" fill="#fff"/>
</svg>
