<svg width="125" height="125" viewBox="0 0 125 125" fill="none" xmlns="http://www.w3.org/2000/svg">
<g id="duda">
<path id="Trazado 5590" d="M69.585 62.7729C56.143 74.4779 52.125 88.768 57.851 105.843H3.431C0.61 105.843 0 105.225 0 102.372C0 94.5606 0 86.7496 0 78.9389C0.009 62.4389 10.779 49.11 27.063 46.566C35.256 45.287 43.691 45.1169 51.83 47.7579C59.245 50.1629 66.529 56.3629 69.585 62.7729Z" fill="#6CC24A"/>
<path id="dialog" d="M59.6528 92.1821C59.9658 67.7601 85.2228 52.754 106.194 63.065C121.705 70.691 129.361 90.757 120.678 106.835C120.381 107.459 120.313 108.167 120.487 108.835C121.613 112.842 122.81 116.83 124.037 120.807C124.275 121.297 124.338 121.854 124.216 122.385C124.095 122.916 123.796 123.39 123.369 123.728C122.942 124.066 122.412 124.248 121.867 124.244C121.322 124.24 120.795 124.051 120.373 123.707C117.545 122.095 114.666 120.569 111.848 118.94C111.533 118.7 111.147 118.574 110.752 118.581C110.356 118.588 109.975 118.728 109.669 118.979C91.1808 131.241 65.3188 120.734 60.5408 99.008C60.0508 96.772 59.9398 94.4601 59.6528 92.1821ZM80.5398 92.153C80.516 90.9207 80.019 89.7449 79.1518 88.869C78.2847 87.9931 77.1138 87.4843 75.8818 87.4481C74.6977 87.4669 73.5663 87.9405 72.7218 88.7708C71.8774 89.6011 71.3847 90.7244 71.3458 91.908C71.3837 93.1393 71.8855 94.3107 72.7505 95.1877C73.6156 96.0647 74.7802 96.5824 76.0108 96.637C77.1943 96.6053 78.3212 96.124 79.1625 95.2911C80.0038 94.4582 80.4963 93.3361 80.5398 92.153ZM96.6488 92.1611C96.6271 90.9291 96.1324 89.7525 95.2672 88.8752C94.4019 87.9979 93.2324 87.4869 92.0008 87.4481C90.8427 87.4658 89.7333 87.9174 88.8921 88.7136C88.0509 89.5098 87.5391 90.5926 87.4578 91.748C87.4684 93.003 87.9566 94.2069 88.8232 95.1147C89.6898 96.0225 90.8697 96.5662 92.1228 96.6351C93.3058 96.6079 94.4336 96.1293 95.275 95.2972C96.1164 94.4651 96.6075 93.3426 96.6478 92.16L96.6488 92.1611ZM112.759 91.898C112.72 90.7412 112.248 89.6414 111.435 88.8172C110.622 87.993 109.529 87.5049 108.373 87.45C107.118 87.4613 105.917 87.9575 105.021 88.8348C104.124 89.712 103.602 90.9023 103.563 92.1561C103.626 93.3337 104.126 94.4455 104.965 95.2741C105.804 96.1028 106.922 96.5887 108.101 96.637C109.327 96.5676 110.484 96.0438 111.345 95.1676C112.207 94.2914 112.711 93.1257 112.759 91.898Z" fill="white"/>
<path id="Trazado 5592" d="M36.8712 4.35397e-05C40.9696 0.0108049 44.9727 1.23762 48.3734 3.52495C51.7742 5.81227 54.4197 9.05731 55.975 12.8492C57.5302 16.641 57.9253 20.8091 57.1101 24.8256C56.295 28.8421 54.3062 32.5265 51.3957 35.412C48.4853 38.2975 44.784 40.2544 40.7606 41.035C36.7372 41.8155 32.5726 41.3847 28.7943 39.7968C25.016 38.2089 21.7938 35.5355 19.5359 32.1152C17.2779 28.6948 16.0857 24.6814 16.1102 20.5831C16.1462 15.1043 18.3507 9.86293 22.2414 6.00554C26.1322 2.14814 31.3924 -0.0111807 36.8712 4.35397e-05Z" fill="#6CC24A"/>
</g>
</svg>
