<svg xmlns="http://www.w3.org/2000/svg" width="116" height="116" viewBox="0 0 116 116">
  <g id="Grupo_14069" data-name="Grupo 14069" transform="translate(-924 -42)">
    <circle id="Elipse_297" data-name="Elipse 297" cx="58" cy="58" r="58" transform="translate(924 42)" fill="#6cc24a" opacity="0.1"/>
    <g id="Grupo_13526" data-name="Grupo 13526" transform="translate(937 73)">
      <path id="Trazado_5247" data-name="Trazado 5247" d="M2353.932-115.115c1.223-3.733,2.454-7.464,3.666-11.2,1.714-5.284,3.406-10.574,5.124-15.856a4.338,4.338,0,0,1,4.462-3.32,5.342,5.342,0,0,1,1.3.263q3.215,1.007,6.417,2.05a4.226,4.226,0,0,1,2.97,3.027c.147.554.435.68.944.681a38.128,38.128,0,0,0,6.827-.99,16,16,0,0,1,11.448,1.882.972.972,0,0,0,1.134-.016c4.517-2.661,9.187-2.709,13.968-.789,1.48.594,2.959,1.2,4.457,1.745a5.606,5.606,0,0,0,2.607.365c.437-.052.574-.21.492-.7-.457-2.724.549-4.428,3.118-5.384,1.966-.732,3.927-1.478,5.9-2.188a4.316,4.316,0,0,1,5.955,2.669q4.963,13.239,9.854,26.505a4.337,4.337,0,0,1-2.658,5.691c-2.07.791-4.15,1.556-6.231,2.317a4.335,4.335,0,0,1-5.725-2.092.849.849,0,0,0-.327-.335,7.981,7.981,0,0,1-.079,2.779c-.567,2.856-2.859,5.176-6.238,4.313-.413-.105-.535-.068-.559.421a6.066,6.066,0,0,1-5.8,6.214,5.241,5.241,0,0,1-1.923-.229c-.383-.1-.5.018-.542.424-.36,3.8-1.9,5.477-5.646,6.1-.569.094-.447.4-.433.751a5.28,5.28,0,0,1-4.661,5.535,4.911,4.911,0,0,1-2.97-.7c-.47-.257-.764-.259-1.066.271-1.152,2.03-2.795,3.3-5.259,3.024a6,6,0,0,1-4.969-3.793c-.346-.763-.641-.873-1.415-.638a5.712,5.712,0,0,1-6.7-2.855c-.316-.585-.558-.641-1.15-.37a5.791,5.791,0,0,1-8.264-5.932c.043-.478.237-.945-.635-.968a5.786,5.786,0,0,1-5.127-8.471c.461-.958,1-1.88,1.49-2.823.091-.175.235-.351.133-.58-.05-.023-.125-.08-.149-.063a4.964,4.964,0,0,1-4.887.477c-1.688-.625-3.413-1.164-5.145-1.658a5.131,5.131,0,0,1-3.707-3.248Zm42.974,19.069c-.277-.2-.423-.288-.553-.4a1.287,1.287,0,0,1-.366-1.8,1.25,1.25,0,0,1,1.718-.422c.586.281,1.156.6,1.73.9,2.481,1.314,4.946,2.658,7.447,3.935a3.35,3.35,0,0,0,4.927-2.242,3.313,3.313,0,0,0-1.708-3.666c-1.744-1-3.532-1.918-5.3-2.871-.989-.533-1.99-1.043-2.962-1.606a1.318,1.318,0,0,1-.638-1.8,1.307,1.307,0,0,1,1.827-.531c.405.178.79.4,1.18.613,3.541,1.9,7.073,3.821,10.625,5.7a3.445,3.445,0,0,0,4.833-1.261,3.435,3.435,0,0,0-1.642-4.782c-2.23-1.221-4.469-2.423-6.7-3.636-1.455-.79-2.918-1.564-4.357-2.381a1.3,1.3,0,0,1-.6-1.812,1.317,1.317,0,0,1,1.833-.513c.135.059.266.128.4.2q4.4,2.392,8.8,4.784c1.9,1.026,3.789,2.068,5.713,3.043,1.982,1,3.6.083,3.862-2.137a4.2,4.2,0,0,0-1.3-3.78,19.364,19.364,0,0,0-2.963-2.245c-1.928-1.215-3.95-2.258-5.977-3.294-2.709-1.384-5.5-2.618-8.087-4.234a4.693,4.693,0,0,0-3.263-.524,20.6,20.6,0,0,0-4.084,1.16,46.51,46.51,0,0,1-5.72,1.885,9.768,9.768,0,0,1-10.679-3.765,1.736,1.736,0,0,1-.135-2.2,13.258,13.258,0,0,1,1.43-1.916c2.63-2.887,5.422-5.611,8.284-8.265.774-.719.78-.706-.217-1.16a13.276,13.276,0,0,0-7.984-.8c-2.672.465-5.315,1.19-8.068.988-.6-.044-.723.348-.867.8-1.7,5.288-3.427,10.569-5.114,15.862-.618,1.942-1.368,3.846-1.8,5.843a5.415,5.415,0,0,0-.2,2.465c.2-.117.325-.184.444-.264,3.863-2.6,8.347-.809,9.383,3.77.127.562.367.6.858.559a5.777,5.777,0,0,1,6.367,4.442c.183.932.542,1.069,1.386,1.015a5.754,5.754,0,0,1,6.12,4.762C2395.06-96.021,2395.06-96.021,2396.906-96.045Zm9.145-42.068a14.089,14.089,0,0,0-9.274,3.76,115.249,115.249,0,0,0-8.536,8.386c-.2.214-.372.46-.571.679a.59.59,0,0,0,.03.923,6.969,6.969,0,0,0,3.334,2.091,9.544,9.544,0,0,0,5.484-.485c2.132-.7,4.223-1.536,6.367-2.194,2.829-.869,5.593-.878,8.116,1a9.444,9.444,0,0,0,1.395.772c2.559,1.294,5.145,2.535,7.676,3.881,2.87,1.526,5.746,3.063,8.006,5.49.134.144.272.4.5.214.246-.2.015-.444-.06-.644q-3.678-9.934-7.36-19.867c-.216-.586-.467-.8-1.093-.62a5.68,5.68,0,0,1-2.634.03,31.125,31.125,0,0,1-5.919-2.1A17.755,17.755,0,0,0,2406.051-138.114Zm28.038,27.412a5.051,5.051,0,0,0,.726-.179c2-.729,4-1.459,5.988-2.214a1.747,1.747,0,0,0,1.189-2.585q-4.846-13.1-9.721-26.184c-.5-1.339-1.313-1.673-2.67-1.172-1.858.686-3.708,1.391-5.568,2.07-1.764.644-2.1,1.32-1.444,3.1q3.275,8.857,6.573,17.706,1.481,3.99,2.954,7.983A1.847,1.847,0,0,0,2434.089-110.7Zm-58.728-28.064a1.757,1.757,0,0,0-1.358-1.9c-2.025-.653-4.047-1.317-6.075-1.96-1.533-.486-2.25-.113-2.752,1.44q-4.252,13.161-8.491,26.327c-.448,1.39-.086,2.116,1.314,2.585q2.774.929,5.565,1.806c2.05.647,2.612.352,3.271-1.69q4.153-12.867,8.3-25.736C2375.24-138.227,2375.312-138.574,2375.361-138.766Zm9.418,36.857a3.144,3.144,0,0,0-2.281-3.2,3.167,3.167,0,0,0-3.7,1.549q-1.926,3.486-3.77,7.017a3.227,3.227,0,0,0,1.185,4.52,3.242,3.242,0,0,0,4.536-1.572q1.8-3.354,3.594-6.71A3.075,3.075,0,0,0,2384.779-101.909Zm-13.2,2.881a3.054,3.054,0,0,0,2.548-1.548c1.06-1.874,2.1-3.763,3.04-5.7a3.112,3.112,0,0,0-1.52-4.134,3.078,3.078,0,0,0-4.05,1.092,64.838,64.838,0,0,0-3.117,5.857A3.193,3.193,0,0,0,2371.582-99.028Zm20.627,2.559a3.147,3.147,0,0,0-2.25-3.179,3.127,3.127,0,0,0-3.676,1.393c-.928,1.608-1.823,3.239-2.631,4.91a3.163,3.163,0,0,0,1.82,4.422,3.147,3.147,0,0,0,3.865-1.476c.872-1.539,1.686-3.11,2.514-4.673A2.7,2.7,0,0,0,2392.208-96.469Zm-.633,8.314a3.866,3.866,0,0,0,2.785,3.6c1.247.33,2.326-.3,3.21-1.928.506-.934.986-1.887,1.406-2.862.409-.949.663-1.951-.211-2.8a3.394,3.394,0,0,0-3.6-1.109C2393.533-92.727,2391.581-89.959,2391.576-88.155Zm9.474-5.738a5.464,5.464,0,0,1,.43,5.5.5.5,0,0,0,.115.631,2.5,2.5,0,0,0,3.248.037,2.669,2.669,0,0,0-.279-4.208C2403.45-92.672,2402.225-93.245,2401.05-93.893Z" transform="translate(-2353.932 145.905)" fill="#6cc24a"/>
    </g>
  </g>
</svg>
