<svg xmlns="http://www.w3.org/2000/svg" width="116" height="116" viewBox="0 0 116 116">
  <g id="Grupo_14068" data-name="Grupo 14068" transform="translate(-183 -42)">
    <circle id="Elipse_299" data-name="Elipse 299" cx="58" cy="58" r="58" transform="translate(183 42)" fill="#6cc24a" opacity="0.1"/>
    <g id="Grupo_13689" data-name="Grupo 13689" transform="translate(3607.033 802.607)">
      <path id="Trazado_5501" data-name="Trazado 5501" d="M-3305.1-527.929c.475-2.783.774-5.749,1.526-8.6.729-2.757.282-4.736-2.058-6.554a78.2,78.2,0,0,1-6.075-5.823,1.972,1.972,0,0,1-.744-2.214,2.07,2.07,0,0,1,1.927-1.333c3.716-.515,7.432-1.042,11.134-1.648a2.093,2.093,0,0,0,1.311-.991c1.648-3.2,3.221-6.437,4.8-9.67.444-.908.868-1.806,2.09-1.789s1.618.937,2.06,1.839c1.568,3.2,3.18,6.374,4.71,9.59a1.758,1.758,0,0,0,1.547,1.084c3.678.511,7.35,1.069,11.029,1.583.9.127,1.76.467,1.83,1.392a2.99,2.99,0,0,1-.7,2.087c-2.594,2.661-5.276,5.238-7.968,7.8a1.838,1.838,0,0,0-.611,1.89c.676,3.652,1.28,7.317,1.914,10.976a2.014,2.014,0,0,1-.687,2.148,2.018,2.018,0,0,1-2.343,0c-3.279-1.742-6.58-3.443-9.846-5.207a1.742,1.742,0,0,0-1.883-.01q-5,2.7-10.053,5.3A1.89,1.89,0,0,1-3305.1-527.929Zm28.813-21.351c-2.742-.408-5.694-.886-8.659-1.267a2.6,2.6,0,0,1-2.228-1.653c-.779-1.682-1.628-3.333-2.451-5-.5-1-1-2-1.579-3.165-.29.534-.493.88-.67,1.24-1.156,2.342-2.318,4.681-3.451,7.034a2.4,2.4,0,0,1-2.075,1.521c-1.054.1-2.1.289-3.149.446-1.953.293-3.906.591-5.683.861a55.337,55.337,0,0,0,4.865,5.1,5.141,5.141,0,0,1,1.874,5.965c-.6,2.237-.819,4.578-1.236,7.056.526-.255.863-.406,1.189-.577,2.349-1.227,4.709-2.433,7.036-3.7a2.367,2.367,0,0,1,2.566,0c.517.313,1.073.562,1.609.842l6.532,3.416c-.028-.378-.027-.6-.063-.811-.437-2.576-.83-5.16-1.339-7.722a3.386,3.386,0,0,1,1.095-3.44C-3280.068-545.094-3278.2-547.235-3276.286-549.279Z" transform="translate(-72.871 -129.776)" fill="#6cc24a"/>
      <path id="Trazado_5502" data-name="Trazado 5502" d="M-3304.356-663.741c3.269.29,7.013.355,10.654,1,7.115,1.266,11.279,5.9,12.961,12.724a75.334,75.334,0,0,1,1.13,8.665q.86,6.882,1.727,13.763c.173,1.383-.406,2.338-1.505,2.508-1.148.177-2.03-.629-2.2-2.047-.833-6.961-1.629-13.926-2.5-20.883-.791-6.348-5.2-10.508-11.531-11.257a84.155,84.155,0,0,0-19.4.067,12.174,12.174,0,0,0-10.686,9.877,79.393,79.393,0,0,0-.953,7.888c-.555,4.819-1.094,9.641-1.676,14.457-.168,1.4-1.007,2.083-2.175,1.931-1.13-.146-1.715-1.084-1.564-2.467.744-6.82,1.47-13.641,2.227-20.46.939-8.462,6.716-14.425,15.5-15.075C-3311.162-663.283-3307.985-663.49-3304.356-663.741Z" transform="translate(-59.284 -62.132)" fill="#6cc24a"/>
      <path id="Trazado_5503" data-name="Trazado 5503" d="M-3411.656-506.836c.409-2.375.79-4.924,1.306-7.445a2.537,2.537,0,0,0-.878-2.76c-1.791-1.576-3.439-3.313-5.156-4.972a2.024,2.024,0,0,1-.79-2.2,2.08,2.08,0,0,1,2-1.389c2.627-.35,5.253-.722,7.865-1.169a1.846,1.846,0,0,0,1.123-.891c1.19-2.282,2.316-4.6,3.438-6.915.419-.866.916-1.6,2-1.58,1.019.018,1.5.7,1.907,1.539,1.116,2.32,2.289,4.612,3.4,6.933a1.543,1.543,0,0,0,1.361.98c2.667.337,5.336.687,7.976,1.182a2.433,2.433,0,0,1,1.64,1.275,2.41,2.41,0,0,1-.536,2.011c-1.871,1.984-3.9,3.82-5.8,5.772a1.958,1.958,0,0,0-.453,1.456c.39,2.66.939,5.3,1.285,7.961a2.921,2.921,0,0,1-.665,2c-.568.679-1.436.51-2.2.106-2.343-1.239-4.7-2.451-7.024-3.724a1.648,1.648,0,0,0-1.783,0q-3.54,1.927-7.133,3.758A1.892,1.892,0,0,1-3411.656-506.836Zm10.874-23.2c-.823,1.666-1.636,3.086-2.237,4.591a3.467,3.467,0,0,1-3.341,2.384c-1.6.108-3.176.438-4.792.675,1.4,1.441,2.688,2.818,4.033,4.139a2.542,2.542,0,0,1,.8,2.552c-.377,1.829-.631,3.683-.975,5.753,1.79-.936,3.4-1.692,4.915-2.595a2.8,2.8,0,0,1,3.277.035,23.653,23.653,0,0,0,2.1,1.118c.845.437,1.693.866,2.739,1.4a34.088,34.088,0,0,0-.687-3.93,4.56,4.56,0,0,1,1.737-5.559,26.92,26.92,0,0,0,2.9-2.912c-1.967-.282-3.76-.58-5.564-.783a2.743,2.743,0,0,1-2.4-1.774C-3399.013-526.587-3399.865-528.187-3400.782-530.033Z" transform="translate(0 -150.923)" fill="#6cc24a"/>
      <path id="Trazado_5504" data-name="Trazado 5504" d="M-3168.734-515.715a6.26,6.26,0,0,0-.62-.811c-1.86-1.838-3.724-3.673-5.615-5.48a2.076,2.076,0,0,1-.763-2.322,2.087,2.087,0,0,1,1.966-1.283c2.627-.348,5.252-.721,7.864-1.167a1.851,1.851,0,0,0,1.134-.886c1.173-2.249,2.275-4.534,3.381-6.816.43-.887.9-1.705,2.047-1.686s1.582.854,2.01,1.74c1.087,2.25,2.233,4.47,3.3,6.727a1.531,1.531,0,0,0,1.352.985c2.666.341,5.335.688,7.974,1.184a2.428,2.428,0,0,1,1.627,1.284,2.39,2.39,0,0,1-.525,2c-1.843,1.958-3.8,3.806-5.755,5.659a1.525,1.525,0,0,0-.543,1.575c.475,2.492.861,5,1.3,7.5.165.932.256,1.831-.6,2.492-.906.7-1.771.34-2.644-.127-2.2-1.179-4.428-2.316-6.618-3.518a1.634,1.634,0,0,0-1.78-.009c-2.29,1.255-4.623,2.432-6.927,3.661a2.014,2.014,0,0,1-2.34.029,2.037,2.037,0,0,1-.686-2.235C-3169.68-509.98-3169.237-512.747-3168.734-515.715Zm9.366-14.32c-.844,1.708-1.679,3.192-2.321,4.755a3.3,3.3,0,0,1-3.106,2.2c-1.648.143-3.281.448-4.869.675,1.239,1.313,2.39,2.667,3.686,3.863a3.112,3.112,0,0,1,1.008,3.252c-.36,1.689-.594,3.4-.92,5.337,1.655-.865,3.137-1.538,4.511-2.385a3.441,3.441,0,0,1,4.008-.022c1.395.863,2.9,1.545,4.532,2.4-.331-1.977-.536-3.746-.947-5.466a2.941,2.941,0,0,1,1.049-3.112c1.282-1.209,2.456-2.532,3.715-3.846-1.923-.287-3.823-.6-5.733-.843a2.354,2.354,0,0,1-1.979-1.473C-3157.544-526.414-3158.407-528.1-3159.368-530.035Z" transform="translate(-168.02 -150.92)" fill="#6cc24a"/>
      <path id="Trazado_5505" data-name="Trazado 5505" d="M-3272.579-753.015c6.232.015,11.162,3.687,12.559,9.352,1.73,7.021-3.335,15.653-10.18,17.354a9.82,9.82,0,0,1-8.057-1.357,15.3,15.3,0,0,1-7.269-13.731C-3285.377-748.117-3279.756-753.032-3272.579-753.015Zm9.159,12.229a17.416,17.416,0,0,0-.238-1.934c-.955-4.171-4.9-6.865-9.519-6.538-4.576.324-7.892,3.029-8.521,6.949a12.193,12.193,0,0,0,5.646,11.6,6.417,6.417,0,0,0,6.8-.044A11.761,11.761,0,0,0-3263.42-740.786Z" transform="translate(-91.687 0)" fill="#6cc24a"/>
      <path id="Trazado_5506" data-name="Trazado 5506" d="M-3292.726-608.606c-.451,6.547-.84,12.223-1.234,17.9a8.526,8.526,0,0,1-.139,1.129,1.811,1.811,0,0,1-1.967,1.507,1.82,1.82,0,0,1-1.7-1.8,5.225,5.225,0,0,1,.012-.683c.409-5.865.808-11.73,1.241-17.593.126-1.709.887-2.542,2.069-2.432A1.788,1.788,0,0,1-3292.726-608.606Z" transform="translate(-83.168 -99.122)" fill="#6cc24a"/>
      <path id="Trazado_5507" data-name="Trazado 5507" d="M-3205.04-607.516c-.016-.3-.042-.605-.049-.908a1.908,1.908,0,0,1,1.778-2.2,1.927,1.927,0,0,1,1.933,1.959q.341,4.476.655,8.954.317,4.421.622,8.842a4.82,4.82,0,0,1,.027,1.133,1.763,1.763,0,0,1-1.734,1.646,1.658,1.658,0,0,1-1.9-1.417c-.2-1.19-.254-2.407-.339-3.615Q-3204.555-600.316-3205.04-607.516Z" transform="translate(-147.671 -99.102)" fill="#6cc24a"/>
      <path id="Trazado_5508" data-name="Trazado 5508" d="M-3261.787-535.12c-1.913,2.045-3.782,4.186-5.816,6.156a3.386,3.386,0,0,0-1.1,3.44c.51,2.561.9,5.146,1.34,7.721.035.213.034.433.062.811l-6.532-3.416c-.537-.281-1.092-.53-1.609-.842a2.366,2.366,0,0,0-2.566,0c-2.328,1.265-4.688,2.472-7.036,3.7-.327.171-.663.322-1.19.577.417-2.478.635-4.819,1.237-7.056a5.141,5.141,0,0,0-1.875-5.965,55.384,55.384,0,0,1-4.865-5.1c1.777-.269,3.73-.568,5.684-.861,1.048-.157,2.094-.35,3.149-.446a2.4,2.4,0,0,0,2.075-1.521c1.133-2.353,2.3-4.692,3.451-7.034.177-.359.38-.705.67-1.24.581,1.164,1.083,2.163,1.579,3.165.823,1.662,1.672,3.313,2.451,5a2.6,2.6,0,0,0,2.228,1.653C-3267.482-536.005-3264.53-535.527-3261.787-535.12Z" transform="translate(-87.37 -143.936)" fill="#fff"/>
      <path id="Trazado_5509" data-name="Trazado 5509" d="M-3386.773-516c.917,1.846,1.769,3.446,2.51,5.1a2.743,2.743,0,0,0,2.4,1.774c1.8.2,3.6.5,5.564.783a26.97,26.97,0,0,1-2.9,2.912,4.559,4.559,0,0,0-1.737,5.559,34.091,34.091,0,0,1,.686,3.93c-1.046-.535-1.894-.965-2.739-1.4a23.592,23.592,0,0,1-2.1-1.118,2.8,2.8,0,0,0-3.277-.035c-1.519.9-3.125,1.659-4.915,2.595.344-2.07.6-3.924.976-5.753a2.543,2.543,0,0,0-.8-2.552c-1.345-1.321-2.635-2.7-4.033-4.139,1.616-.237,3.2-.567,4.792-.675a3.468,3.468,0,0,0,3.341-2.384C-3388.409-512.918-3387.6-514.338-3386.773-516Z" transform="translate(-14.009 -164.952)" fill="#fff"/>
      <path id="Trazado_5510" data-name="Trazado 5510" d="M-3145.205-516c.961,1.937,1.824,3.621,2.634,5.331a2.355,2.355,0,0,0,1.979,1.473c1.909.243,3.81.556,5.733.843-1.259,1.315-2.433,2.638-3.715,3.846a2.94,2.94,0,0,0-1.048,3.112c.411,1.72.615,3.488.947,5.466-1.631-.852-3.137-1.534-4.532-2.4a3.442,3.442,0,0,0-4.008.022c-1.374.847-2.856,1.521-4.511,2.385.327-1.932.561-3.648.92-5.337a3.111,3.111,0,0,0-1.008-3.252c-1.3-1.2-2.447-2.55-3.686-3.863,1.587-.227,3.221-.532,4.869-.675a3.3,3.3,0,0,0,3.106-2.2C-3146.885-512.81-3146.05-514.294-3145.205-516Z" transform="translate(-182.183 -164.953)" fill="#fff"/>
    </g>
  </g>
</svg>
