<svg xmlns="http://www.w3.org/2000/svg" width="116" height="116" viewBox="0 0 116 116">
  <g id="Grupo_14070" data-name="Grupo 14070" transform="translate(-639.123 -42)">
    <circle id="Elipse_296" data-name="Elipse 296" cx="58" cy="58" r="58" transform="translate(639.123 42)" fill="#6cc24a" opacity="0.1"/>
    <g id="Grupo_13525" data-name="Grupo 13525" transform="translate(653.123 57)">
      <path id="Trazado_5225" data-name="Trazado 5225" d="M1922.333-105.976h-41.6c-.148,0-.3,0-.443,0q-2.081-.038-2.056-1.54c.015-.971.677-1.469,2.014-1.491.828-.014,1.656,0,2.484,0,1.426,0,1.426,0,1.426-1.466q0-30.027,0-60.054a6.809,6.809,0,0,1,5.257-6.9,8.1,8.1,0,0,1,2.017-.251c3.1,0,6.209,0,9.314.007a4.673,4.673,0,0,1,1.138.126,1.292,1.292,0,0,1,1,1.392,1.271,1.271,0,0,1-1.03,1.365,6.492,6.492,0,0,1-1.407.13c-2.986.011-5.973-.005-8.959.01-2.922.015-4.39,1.51-4.39,4.455q0,29.982,0,59.965c0,1.2,0,1.2,1.154,1.2q7.983.013,15.967.021c1.227,0,1.229,0,1.229-1.219q0-37.168,0-74.335a6.913,6.913,0,0,1,5.215-7.048,6.54,6.54,0,0,1,3.833.123q10.041,3.354,20.084,6.7a6.882,6.882,0,0,1,4.69,6.815q0,33.353,0,66.707c0,.355,0,.709,0,1.064,0,1.185,0,1.19,1.169,1.19,5.352,0,10.7-.019,16.056.02.912.006,1.144-.289,1.143-1.171q-.037-21.112-.019-42.224c0-2.846-1.591-4.437-4.466-4.452-3.223-.017-6.446-.009-9.669,0a1.451,1.451,0,0,1-1.535-.81,1.437,1.437,0,0,1,1.214-2.081,91.592,91.592,0,0,1,11.6.127,6.616,6.616,0,0,1,5.789,6.784q.018,21.2.006,42.4c0,1.41,0,1.41,1.392,1.412.857,0,1.715-.012,2.573.005,1.313.027,1.979.563,1.957,1.545-.021.948-.665,1.459-1.933,1.479-2.217.035-4.434.063-6.651.064q-17.784.009-35.569,0Zm-13.927-41.387q0,18.629-.015,37.259c0,.79.188,1.111,1.035,1.077,1.506-.061,3.018-.07,4.523,0,.93.045,1.136-.309,1.139-1.175a59.3,59.3,0,0,1,.129-7.442c.491-3.779,3.723-6.3,7.843-6.14a7.431,7.431,0,0,1,6.645,6.736c.155,2.306.087,4.611.076,6.915,0,.863.29,1.137,1.132,1.1,1.358-.056,2.72-.014,4.08-.015,1.321,0,1.322,0,1.322-1.288q0-16.944,0-33.888,0-16.766,0-33.533a4,4,0,0,0-3.112-4.367q-9.453-3.162-18.912-6.3a6.152,6.152,0,0,0-1.458-.347,4.09,4.09,0,0,0-4.422,4.327Q1908.4-165.9,1908.406-147.363Zm13.953,38.31c1.211,0,2.422-.017,3.632.007.573.012.789-.216.784-.783-.02-2.3.037-4.608-.033-6.909a4.472,4.472,0,0,0-4.328-4.113,4.118,4.118,0,0,0-4.29,4.127c-.056,2.272,0,4.547-.031,6.82-.008.664.265.88.9.861C1920.114-109.076,1921.237-109.053,1922.359-109.054Z" transform="translate(-1878.231 191.845)" fill="#6cc24a"/>
      <path id="Trazado_5226" data-name="Trazado 5226" d="M1937.594,129.275c-1.21,0-2.421.041-3.628-.012-1.107-.048-1.619-.625-1.57-1.606a1.28,1.28,0,0,1,1.362-1.33c1.532-.057,3.066-.06,4.6-.066,1,0,2.009-.022,3.006.056,1.029.08,1.472.606,1.444,1.53a1.366,1.366,0,0,1-1.5,1.408c-1.236.058-2.477.014-3.716.014Z" transform="translate(-1919.554 -50.857)" fill="#6cc24a"/>
      <path id="Trazado_5227" data-name="Trazado 5227" d="M1937.576-24.486c1.239,0,2.478-.018,3.716.006,1.011.02,1.517.526,1.52,1.445a1.371,1.371,0,0,1-1.51,1.475q-3.672.038-7.344,0a1.376,1.376,0,0,1-1.56-1.509c.018-.916.521-1.4,1.55-1.416C1935.157-24.5,1936.367-24.487,1937.576-24.486Z" transform="translate(-1919.559 64.16)" fill="#6cc24a"/>
      <path id="Trazado_5228" data-name="Trazado 5228" d="M1937.6-97.79c-1.242,0-2.484.019-3.726-.006a1.314,1.314,0,0,1-1.48-1.392,1.341,1.341,0,0,1,1.395-1.5q3.813-.07,7.628,0a1.342,1.342,0,0,1,1.393,1.5,1.316,1.316,0,0,1-1.483,1.39C1940.085-97.771,1938.843-97.79,1937.6-97.79Z" transform="translate(-1919.556 122.324)" fill="#6cc24a"/>
      <path id="Trazado_5229" data-name="Trazado 5229" d="M1937.562-59.783c-1.12,0-2.24.012-3.359,0-1.208-.016-1.793-.5-1.8-1.468-.011-1.006.519-1.461,1.759-1.466q3.448-.014,6.895,0c1.241,0,1.771.459,1.759,1.466-.011.962-.6,1.452-1.8,1.468C1939.86-59.772,1938.711-59.783,1937.562-59.783Z" transform="translate(-1919.56 93.331)" fill="#6cc24a"/>
      <path id="Trazado_5230" data-name="Trazado 5230" d="M1937.595,16.011c-1.242,0-2.484.018-3.725-.006a1.309,1.309,0,0,1-1.474-1.4,1.34,1.34,0,0,1,1.4-1.5q3.813-.069,7.627,0a1.338,1.338,0,0,1,1.386,1.509c-.022.881-.516,1.363-1.49,1.381C1940.079,16.028,1938.837,16.011,1937.595,16.011Z" transform="translate(-1919.556 35.495)" fill="#6cc24a"/>
      <path id="Trazado_5231" data-name="Trazado 5231" d="M1937.608,51.094c1.238,0,2.475-.016,3.712.005a1.318,1.318,0,0,1,1.49,1.374,1.337,1.337,0,0,1-1.367,1.519q-3.843.073-7.688,0a1.334,1.334,0,0,1-1.357-1.526c.03-.874.527-1.349,1.5-1.366C1935.133,51.078,1936.37,51.094,1937.608,51.094Z" transform="translate(-1919.558 6.494)" fill="#6cc24a"/>
      <path id="Trazado_5232" data-name="Trazado 5232" d="M1937.559,91.532c-1.208,0-2.417.015-3.624,0-1.023-.017-1.528-.5-1.538-1.421a1.372,1.372,0,0,1,1.495-1.493q3.712-.053,7.425,0a1.374,1.374,0,0,1,1.495,1.494c-.011.917-.516,1.4-1.54,1.419C1940.035,91.548,1938.8,91.532,1937.559,91.532Z" transform="translate(-1919.558 -22.117)" fill="#6cc24a"/>
      <path id="Trazado_5233" data-name="Trazado 5233" d="M2158.047,50.38c1.181,0,2.362-.016,3.543,0,1.072.019,1.591.524,1.584,1.479-.007.929-.552,1.444-1.621,1.451q-3.543.023-7.086,0a1.432,1.432,0,0,1-1.618-1.481c.012-.891.606-1.429,1.655-1.446C2155.685,50.364,2156.866,50.379,2158.047,50.38Z" transform="translate(-2087.756 7.04)" fill="#6cc24a"/>
      <path id="Trazado_5234" data-name="Trazado 5234" d="M2158.051,104.974c-1.181,0-2.362.014-3.543,0-1.05-.016-1.644-.551-1.658-1.442a1.431,1.431,0,0,1,1.614-1.485q3.587-.03,7.175,0a1.36,1.36,0,0,1,1.536,1.444c.009.956-.51,1.463-1.58,1.481C2160.413,104.99,2159.232,104.974,2158.051,104.974Z" transform="translate(-2087.756 -32.371)" fill="#6cc24a"/>
      <path id="Trazado_5235" data-name="Trazado 5235" d="M2158.079-1.27c1.18,0,2.362-.017,3.542,0,1.028.019,1.533.5,1.55,1.419a1.377,1.377,0,0,1-1.564,1.507q-3.586.033-7.172,0a1.452,1.452,0,0,1-1.588-1.52,1.428,1.428,0,0,1,1.6-1.4C2155.659-1.286,2156.869-1.27,2158.079-1.27Z" transform="translate(-2087.754 46.447)" fill="#6cc24a"/>
      <path id="Trazado_5236" data-name="Trazado 5236" d="M2158.039,128.227c1.181,0,2.361-.014,3.542,0,1.079.016,1.6.509,1.6,1.463,0,.936-.541,1.456-1.607,1.463q-3.542.026-7.084,0a1.456,1.456,0,0,1-1.633-1.475c0-.89.6-1.434,1.646-1.45C2155.677,128.213,2156.858,128.227,2158.039,128.227Z" transform="translate(-2087.758 -52.356)" fill="#6cc24a"/>
      <path id="Trazado_5237" data-name="Trazado 5237" d="M2158.091,24.907c1.18,0,2.361-.017,3.54,0,1.025.018,1.53.505,1.541,1.422a1.374,1.374,0,0,1-1.5,1.493q-3.672.049-7.345,0a1.426,1.426,0,0,1-1.482-1.529,1.4,1.4,0,0,1,1.526-1.382C2155.613,24.888,2156.852,24.908,2158.091,24.907Z" transform="translate(-2087.754 26.475)" fill="#6cc24a"/>
      <path id="Trazado_5238" data-name="Trazado 5238" d="M2158.122,76.566c1.18,0,2.36-.018,3.54.005.974.019,1.476.495,1.513,1.362a1.36,1.36,0,0,1-1.434,1.548c-2.477.039-4.956.035-7.433,0a1.408,1.408,0,0,1-1.456-1.465,1.388,1.388,0,0,1,1.466-1.442c1.268-.033,2.537-.009,3.805-.009Z" transform="translate(-2087.758 -12.94)" fill="#6cc24a"/>
      <path id="Trazado_5239" data-name="Trazado 5239" d="M2157.988-23.814c-1.15,0-2.3.023-3.449,0-1.075-.026-1.721-.631-1.694-1.521s.618-1.4,1.682-1.4q3.538-.017,7.076,0c1.032.006,1.546.486,1.569,1.391a1.405,1.405,0,0,1-1.556,1.528C2160.406-23.787,2159.2-23.815,2157.988-23.814Z" transform="translate(-2087.752 65.885)" fill="#6cc24a"/>
      <path id="Trazado_5240" data-name="Trazado 5240" d="M2033.529,2.709q-3.543,0-7.086,0a8.359,8.359,0,0,1-.972-.032c-.987-.118-1.55-.678-1.54-1.5s.576-1.364,1.574-1.471a9.181,9.181,0,0,1,.973-.027q7.041,0,14.083,0a9.311,9.311,0,0,1,.973.026c1,.105,1.566.637,1.583,1.464.017.854-.574,1.418-1.618,1.523-.293.029-.59.021-.885.022Q2037.072,2.711,2033.529,2.709Z" transform="translate(-1989.396 45.722)" fill="#6cc24a"/>
      <path id="Trazado_5241" data-name="Trazado 5241" d="M2033.419-133.746c-2.57,0-5.14,0-7.71,0-1.171,0-1.809-.539-1.793-1.479.015-.9.648-1.448,1.758-1.449q7.843-.015,15.686,0c1.1,0,1.741.56,1.75,1.458.009.938-.628,1.467-1.8,1.47C2038.677-133.742,2036.048-133.746,2033.419-133.746Z" transform="translate(-1989.384 149.758)" fill="#6cc24a"/>
      <path id="Trazado_5242" data-name="Trazado 5242" d="M2033.5-99.395q-3.942,0-7.885,0a1.5,1.5,0,0,1-1.646-1.058,1.437,1.437,0,0,1,1.506-1.874c1.387-.032,2.776-.011,4.164-.011q5.8,0,11.606,0a1.675,1.675,0,0,1,1.623.689,1.47,1.47,0,0,1-1.395,2.244C2038.821-99.375,2036.163-99.4,2033.5-99.395Z" transform="translate(-1989.373 123.557)" fill="#6cc24a"/>
      <path id="Trazado_5243" data-name="Trazado 5243" d="M2033.417,71.293h-7.353a7.019,7.019,0,0,1-.8-.019,1.432,1.432,0,0,1-1.352-1.478,1.41,1.41,0,0,1,1.32-1.416c.556-.056,1.121-.029,1.682-.03q6.822,0,13.644,0c.266,0,.531,0,.8,0,1.107.027,1.74.555,1.751,1.455s-.625,1.465-1.718,1.482c-1.063.016-2.126,0-3.189,0Z" transform="translate(-1989.383 -6.672)" fill="#6cc24a"/>
      <path id="Trazado_5244" data-name="Trazado 5244" d="M2033.572-67.919c2.6,0,5.2,0,7.793,0,1.122,0,1.75.522,1.752,1.42S2042.508-65,2041.4-65q-7.882.025-15.763,0c-1.1,0-1.715-.591-1.708-1.5.007-.9.633-1.411,1.758-1.414C2028.318-67.924,2030.945-67.919,2033.572-67.919Z" transform="translate(-1989.396 97.295)" fill="#6cc24a"/>
      <path id="Trazado_5245" data-name="Trazado 5245" d="M2033.557-34.235c2.6,0,5.2,0,7.793,0,1.13,0,1.756.507,1.771,1.4.015.912-.6,1.512-1.7,1.516q-7.882.028-15.764,0c-1.111,0-1.72-.575-1.725-1.489s.622-1.428,1.74-1.43C2028.3-34.24,2030.93-34.235,2033.557-34.235Z" transform="translate(-1989.399 71.594)" fill="#6cc24a"/>
      <path id="Trazado_5246" data-name="Trazado 5246" d="M2033.479,36.944c-2.6,0-5.2,0-7.793,0-1.123,0-1.75-.521-1.754-1.42,0-.914.607-1.5,1.713-1.5q7.882-.025,15.763,0c1.1,0,1.717.59,1.71,1.5-.006.9-.636,1.414-1.758,1.416C2038.733,36.948,2036.106,36.944,2033.479,36.944Z" transform="translate(-1989.396 19.524)" fill="#6cc24a"/>
    </g>
  </g>
</svg>
