<svg xmlns="http://www.w3.org/2000/svg" width="116" height="116" viewBox="0 0 116 116">
  <g id="Grupo_14071" data-name="Grupo 14071" transform="translate(-1222.558 -42)">
    <circle id="Elipse_298" data-name="Elipse 298" cx="58" cy="58" r="58" transform="translate(1222.558 42)" fill="#6cc24a" opacity="0.1"/>
    <g id="Grupo_13527" data-name="Grupo 13527" transform="translate(1235.1 51.84)">
      <path id="Trazado_5248" data-name="Trazado 5248" d="M2837.051,57.845a2.3,2.3,0,0,1-.784-1.966q.028-14.323.013-28.646c0-1.637.455-2.083,2.122-2.084q7.45,0,14.9,0c1.739,0,2.211.471,2.245,2.193.005.276-.152.659.164.8.255.115.459-.206.665-.36a116.731,116.731,0,0,1,10.563-7,7.441,7.441,0,0,1,5.781-.928,62.134,62.134,0,0,0,13.932,1.867c2.475.027,4.957-.187,7.429-.379a70.839,70.839,0,0,1,9.821-.255,5.353,5.353,0,0,1,4.709,3.867c.238.821.472.777,1.068.33,1.394-1.047,2.906-1.946,4.24-3.061,2.083-1.741,4.518-1.869,7.022-1.789a12.182,12.182,0,0,1,2.189.311,5.536,5.536,0,0,1,4.056,2.858v2.129a6.7,6.7,0,0,1-2.268,2.771c-5.824,5.319-11.58,10.717-17.848,15.524-4.723,3.621-9.6,7.005-15.172,9.223a18.414,18.414,0,0,1-8.811,1.585c-3.813-.41-7.617-.9-11.437-1.26a86.286,86.286,0,0,0-13.886-.427c-2.589.172-2.186-.133-2.221,2.28,0,.207-.006.414,0,.62a1.91,1.91,0,0,1-.923,1.8Zm18.49-16.609c0,2.72.011,5.44-.008,8.16,0,.648.077.968.883.829a22.714,22.714,0,0,1,3.709-.249c3.046-.022,6.082.11,9.119.347,3.916.306,7.827.664,11.714,1.212a18.079,18.079,0,0,0,9.07-.8,50.786,50.786,0,0,0,11.3-6.236,167.955,167.955,0,0,0,16.273-13.418q3.02-2.742,6.022-5.5c.8-.736.69-1.193-.31-1.608a6.141,6.141,0,0,0-1.895-.431c-2.169-.162-4.251-.144-6.107,1.4-1.837,1.526-3.869,2.817-5.825,4.2a30.328,30.328,0,0,1-6.033,3.665,89.061,89.061,0,0,1-21.113,5.556c-1.168.164-2.344.307-3.521.365a1.435,1.435,0,0,1-1.517-1.322,1.526,1.526,0,0,1,1.223-1.61,4.809,4.809,0,0,1,.7-.132,85.477,85.477,0,0,0,17.321-3.585,65.584,65.584,0,0,0,7.689-2.96,2.55,2.55,0,0,0,1.592-2.865,2.5,2.5,0,0,0-2.381-2.114,55.337,55.337,0,0,0-9.9.324,70.771,70.771,0,0,1-10.006.185,73.981,73.981,0,0,1-11.969-1.921,3.422,3.422,0,0,0-2.559.4,99.733,99.733,0,0,0-12.781,8.618,1.731,1.731,0,0,0-.7,1.519C2855.557,35.913,2855.541,38.575,2855.541,41.235Zm-16.3.378c0,4.106.016,8.213-.015,12.318-.006.75.176,1.037.983,1.029q5.627-.058,11.255,0c.79.008,1-.256,1-1.02q-.033-12.319,0-24.637c0-.874-.3-1.1-1.13-1.093-3.663.035-7.327.044-10.989,0-.927-.012-1.137.31-1.128,1.179C2839.265,33.459,2839.243,37.536,2839.243,41.613Z" transform="translate(-2836.267 33.089)" fill="#6cc24a"/>
      <path id="Trazado_5249" data-name="Trazado 5249" d="M2990.918-194.764c0-.787-.011-1.542,0-2.3.022-1.241.55-1.772,1.8-1.777q4.213-.017,8.426,0c1.413,0,1.931.513,1.933,1.923.008,4.494.017,8.988-.011,13.481a2.261,2.261,0,0,0,.726,1.794c2.285,2.23,4.53,4.5,6.784,6.763,1.164,1.167,1.157,1.805-.016,2.984-1.147,1.152-2.292,2.307-3.451,3.447a1.583,1.583,0,0,1-2.6-.011c-.412-.405-.768-.868-1.192-1.355a1.665,1.665,0,0,0-.23,1.155q-.012,6.563-.006,13.127c0,2.545-1.261,3.8-3.83,3.8q-17.207,0-34.413,0c-2.537,0-3.843-1.283-3.853-3.816-.017-4.346,0-8.692-.005-13.038v-1.105a7.843,7.843,0,0,0-1.453,1.293,1.559,1.559,0,0,1-2.48.023q-1.942-1.882-3.824-3.827a1.533,1.533,0,0,1-.027-2.357c.174-.2.369-.383.557-.571l26.654-26.655c1.319-1.318,1.942-1.32,3.258-.006q3.231,3.228,6.463,6.456A1.481,1.481,0,0,0,2990.918-194.764Zm-26.862,30.717q0,4.035,0,8.071c0,1.154,0,1.157,1.194,1.158q4.257,0,8.514,0c1.237,0,1.241,0,1.242-1.221,0-3.281-.011-6.563.008-9.844.009-1.581.531-2.164,2.03-2.178q5.01-.048,10.021,0c1.5.018,1.995.585,2,2.09.006,3.4.019,6.8-.011,10.2-.006.739.245.97.972.963q4.478-.046,8.957,0c.756.009,1.043-.209,1.039-1-.027-5.439-.02-10.879-.006-16.319a1.839,1.839,0,0,0-.582-1.411q-8.417-8.39-16.8-16.812c-.479-.482-.734-.443-1.194.019q-8.38,8.426-16.8,16.809a1.805,1.805,0,0,0-.588,1.4C2964.07-169.428,2964.057-166.738,2964.056-164.048Zm43.655-9.352c-.234-.25-.446-.489-.671-.715q-12.1-12.1-24.2-24.2c-.795-.795-.8-.793-1.622.033q-11.882,11.882-23.761,23.767c-1.277,1.279-1.3.928.011,2.257.833.843.838.835,1.694-.021l21.254-21.257c1.378-1.378,1.933-1.38,3.3-.013q10.692,10.69,21.368,21.394c.607.611,1.009.663,1.528-.019a10.52,10.52,0,0,1,.805-.823A4.25,4.25,0,0,0,3007.711-173.4Zm-29.634,13.464c0,1.446.016,2.892-.008,4.337-.009.568.2.791.774.786q3.186-.028,6.372,0c.581,0,.776-.245.773-.8q-.018-4.292,0-8.585c0-.609-.221-.832-.833-.825q-3.141.036-6.284,0c-.632-.008-.818.243-.806.84C2978.095-162.768,2978.076-161.352,2978.077-159.936Zm21.92-25.6c0-3.415,0-6.6,0-9.776,0-.486-.326-.562-.72-.561-1.505,0-3.01.016-4.515-.006-.583-.009-.786.247-.776.8.018,1,0,2.007.006,3.01a1.08,1.08,0,0,0,.246.826C2996.1-189.4,2997.958-187.555,3000-185.536Z" transform="translate(-2925.072 202.778)" fill="#6cc24a"/>
    </g>
  </g>
</svg>
