<svg id="Grupo_13545" data-name="Grupo 13545" xmlns="http://www.w3.org/2000/svg" width="26.111" height="36.99" viewBox="0 0 26.111 36.99">
  <path id="Trazado_5331" data-name="Trazado 5331" d="M2869.239,1179.913c.571.145,1.162.177,1.733.329a12.756,12.756,0,0,1,9.378,8.758,12.356,12.356,0,0,1-1.144,10.438c-2.434,4.165-4.945,8.285-7.422,12.425q-1.3,2.168-2.593,4.337a1.219,1.219,0,0,1-.983.7,1.194,1.194,0,0,1-1.144-.673c-.719-1.168-1.445-2.331-2.168-3.5q-3.986-6.426-7.972-12.851a13.06,13.06,0,0,1,9.473-19.911c.083-.01.163-.036.244-.055Zm-1.42,2.188c-.135.012-.386.044-.638.056a9.559,9.559,0,0,0-4.363,1.256,10.8,10.8,0,0,0-3.906,15.427q4.5,7.21,8.968,14.438c.223.36.223.36.445-.009q4.413-7.368,8.825-14.736a10.55,10.55,0,0,0,1.354-7.806A10.845,10.845,0,0,0,2867.82,1182.1Z" transform="translate(-2854.905 -1179.913)" fill="#6cc24a"/>
  <path id="Trazado_5332" data-name="Trazado 5332" d="M2939.968,1258.024a6.522,6.522,0,1,1-6.506-6.523A6.48,6.48,0,0,1,2939.968,1258.024Zm-6.529,4.308a4.309,4.309,0,1,0-4.3-4.3A4.334,4.334,0,0,0,2933.439,1262.332Z" transform="translate(-2920.411 -1245.028)" fill="#6cc24a"/>
</svg>
