<svg xmlns="http://www.w3.org/2000/svg" width="34.797" height="49.934" viewBox="0 0 34.797 49.934">
  <path id="Trazado_5330" data-name="Trazado 5330" d="M3012.313,626.92a6.786,6.786,0,0,1,.886.046.865.865,0,0,1,.86.972c.007.383.008.39.388.371.4-.02.8.011,1.207-.045a2.464,2.464,0,0,0,1.4-.669,4.068,4.068,0,0,1,.57-.508.4.4,0,0,1,.46-.058c.164.1.156.264.132.419a25.17,25.17,0,0,0-.1,3.276c0,.208.112.243.28.252a9.563,9.563,0,0,0,1.646-.117.716.716,0,0,1,.688.289,11.213,11.213,0,0,1,1.038,1.646,20.022,20.022,0,0,0,1,1.753.991.991,0,0,1,.021,1.181,3.7,3.7,0,0,0-.456,2.959,5.37,5.37,0,0,1,.1.607,1.242,1.242,0,0,1-.366,1.034c-.187.2-.4.371-.572.579-.234.28-.354.542-.011.855a.468.468,0,0,1,.022.76,1.083,1.083,0,0,0-.173,1.43c.146.285.269.583.417.867a1.244,1.244,0,0,1,.007,1.117,4.012,4.012,0,0,1-.957,1.334.323.323,0,0,0-.1.422.8.8,0,0,1-.379,1.067c-.091.055-.177.12-.265.18a.2.2,0,0,0-.086.253c.358,1.1-.9,1.767-1.669,1.539a4.668,4.668,0,0,1-1.264-.708,12.471,12.471,0,0,0-1.094-.714.937.937,0,0,1-.554-.735.7.7,0,0,0-.3-.441,17.039,17.039,0,0,0-2.8-1.929c-1.955-1.071-3.947-2.069-5.941-3.065a2.39,2.39,0,0,1-1.044-.873,4.25,4.25,0,0,0-1.073-1.11,6.043,6.043,0,0,1-.917-.961,1.826,1.826,0,0,1-.342-1.853,1.364,1.364,0,0,0-.189-1.311c-.5-.767-.977-1.542-1.51-2.284a3.763,3.763,0,0,1-.4-.679,40.56,40.56,0,0,0-2.521-4.493,17.779,17.779,0,0,1-1.1-2.394,23.659,23.659,0,0,0-1.338-2.83,2.265,2.265,0,0,0-.625-.754A3.818,3.818,0,0,1,2994,621.78a4.386,4.386,0,0,0-1.887-2.111c-.48-.3-.982-.568-1.48-.84a4.318,4.318,0,0,1-.465-.278.5.5,0,0,1,.1-.936c.09-.041.186-.066.276-.105a.352.352,0,0,0,.2-.554,1.063,1.063,0,0,0-.4-.426c-.378-.234-.419-.355-.25-.773a.285.285,0,0,0-.151-.418.8.8,0,0,1-.459-1.045,4.276,4.276,0,0,1,1.294-2.2,6.531,6.531,0,0,1,1.368-1c.478-.256.81-.071.845.466.016.237.046.474.053.712a.69.69,0,0,1-.576.747.361.361,0,0,0-.189.5.115.115,0,0,0,.13.042.577.577,0,0,0,.241-.118.478.478,0,0,1,.692.017,1.451,1.451,0,0,0,.752.333,1.268,1.268,0,0,1,.98.706.982.982,0,0,0,.335.419c.152.094.29.095.372-.077a5.983,5.983,0,0,1,.664-1.036.4.4,0,0,0,.074-.231,2.832,2.832,0,0,1,.436-1.347c.3-.492.617-.972.93-1.455a2.829,2.829,0,0,1,1.148-1.016c1.076-.531,2.183-1,3.241-1.568a6.622,6.622,0,0,0,1.826-1.243,3.777,3.777,0,0,0,.955-2.074.9.9,0,0,1,.33-.66.336.336,0,0,0,.077-.515,4.735,4.735,0,0,0-.439-.564,1.81,1.81,0,0,1-.21-.273.357.357,0,0,1,.222-.565c.364-.094.744-.116,1.115-.182a.848.848,0,0,1,.609.234,8.457,8.457,0,0,0,.906.595,1.583,1.583,0,0,1,.738.956,1.912,1.912,0,0,0,1.261,1.253c.107.041.213.088.32.131a.913.913,0,0,1,.58.628,1.216,1.216,0,0,0,.406.633,1.8,1.8,0,0,1,.613.959.832.832,0,0,0,.478.531,2.565,2.565,0,0,0,2.587-.145.782.782,0,0,1,.961.015.767.767,0,0,0,.677.154,3.06,3.06,0,0,1,2.293.418c.407.214.8.454,1.208.67.195.1.206.2.083.382-.5.725-.986,1.458-1.43,2.218-.043.074-.136.152-.077.242.05.074.153.029.233.031a1.582,1.582,0,0,0,.172-.008c.458-.04.67.07.826.488a1.585,1.585,0,0,0,.373.568.436.436,0,0,1-.158.779.936.936,0,0,1-.811-.034,5.785,5.785,0,0,0-.69-.327c-.483-.15-.6-.084-.8.232-.242.379-.65.384-1.036.392a4.331,4.331,0,0,0-2.152.544c-.594.35-1.172.73-1.738,1.125a1.894,1.894,0,0,0-.619,1.07,5.445,5.445,0,0,0-.255,1.75,1.223,1.223,0,0,1-.706,1.222c-.264.134-.518.287-.777.43a.235.235,0,0,0-.129.285,1.2,1.2,0,0,1-.385,1.207.458.458,0,0,0-.106.6,8.777,8.777,0,0,0,1.242,1.832,11.134,11.134,0,0,1,.8,1.124,1.032,1.032,0,0,1,.062,1.078c-.052.1-.1.208-.153.309-.082.154-.04.237.135.24C3011.9,626.923,3012.107,626.92,3012.313,626.92Zm-6.857-24.143a4.981,4.981,0,0,1,.5.659.818.818,0,0,1-.161,1.15.553.553,0,0,0-.176.337,4.409,4.409,0,0,1-2.257,3.294c-1.165.669-2.377,1.237-3.6,1.792a3.129,3.129,0,0,0-1.556,1.268c-.214.379-.466.737-.7,1.1a2.58,2.58,0,0,0-.432,1.194.8.8,0,0,1-.112.45,11.924,11.924,0,0,0-.782,1.224.632.632,0,0,1-.777.268,1.1,1.1,0,0,1-.7-.583,1.072,1.072,0,0,0-.92-.644.952.952,0,0,1-.6-.258.246.246,0,0,0-.366-.029,1.009,1.009,0,0,1-.469.141.518.518,0,0,1-.586-.384,2.112,2.112,0,0,1-.025-.929.437.437,0,0,1,.355-.364c.427-.079.428-.079.375-.511-.008-.065-.023-.13-.027-.2-.008-.15-.077-.167-.191-.092-.171.114-.345.224-.511.344a4.2,4.2,0,0,0-1.676,2.252c-.123.428-.117.443.276.66a.648.648,0,0,1,.376.564,1.137,1.137,0,0,0,.357.946l.016.019a.945.945,0,0,1-.393,1.587c-.043.019-.11.018-.117.076s.065.086.112.113a22.764,22.764,0,0,1,1.983,1.152,4.617,4.617,0,0,1,1.784,2.084,3.788,3.788,0,0,0,1.335,1.824,2.291,2.291,0,0,1,.593.751,19.379,19.379,0,0,1,1.252,2.6,21.821,21.821,0,0,0,1.669,3.432,27.1,27.1,0,0,1,2.016,3.617,3.806,3.806,0,0,0,.4.71c.563.781,1.079,1.593,1.589,2.408a1.585,1.585,0,0,1,.242,1.571,1.409,1.409,0,0,0,.295,1.581,7.835,7.835,0,0,0,.645.678,5.175,5.175,0,0,1,1.245,1.253,1.983,1.983,0,0,0,.882.762q2.529,1.259,5.034,2.564a23.527,23.527,0,0,1,3.609,2.311,1.469,1.469,0,0,1,.659.864.635.635,0,0,0,.374.48,8.277,8.277,0,0,1,.852.542,7.054,7.054,0,0,0,1.168.734.893.893,0,0,0,.969-.164.621.621,0,0,0,.126-.768.5.5,0,0,1,.146-.562,3.235,3.235,0,0,1,.387-.3c.334-.22.356-.288.153-.626a.44.44,0,0,1,.049-.566c.076-.086.165-.16.247-.241a3.626,3.626,0,0,0,.884-1.234.771.771,0,0,0-.028-.664q-.267-.541-.506-1.1a1.316,1.316,0,0,1,.236-1.592c.119-.117.1-.214,0-.338a.886.886,0,0,1-.073-1.193,3.927,3.927,0,0,1,.717-.777.844.844,0,0,0,.266-.783q-.068-.426-.153-.849a3.7,3.7,0,0,1,.429-2.642c.24-.418.355-.768-.019-1.147a.693.693,0,0,1-.09-.147c-.479-.825-.9-1.681-1.41-2.49-.368-.587-.364-.583-1.038-.5a4.452,4.452,0,0,1-1.521.023.563.563,0,0,1-.521-.638c0-.929-.045-1.859.031-2.787,0-.056.039-.13-.056-.18a2.749,2.749,0,0,1-1.724.915c-.431.052-.87.041-1.3.073-.864.063-1.069-.254-1.009-.957a.329.329,0,0,0-.318-.388,8.136,8.136,0,0,0-1.231-.039,2.328,2.328,0,0,1-.635-.073.5.5,0,0,1-.366-.707,4.05,4.05,0,0,1,.239-.514.589.589,0,0,0-.032-.65,9.856,9.856,0,0,0-.577-.829,11.231,11.231,0,0,1-1.444-2.083.948.948,0,0,1,.162-1.256.818.818,0,0,0,.243-.85.607.607,0,0,1,.307-.691,8.621,8.621,0,0,1,.817-.459.769.769,0,0,0,.493-.793,6.123,6.123,0,0,1,.279-1.9,2.447,2.447,0,0,1,.945-1.457c.3-.191.6-.37.887-.581a5.464,5.464,0,0,1,3.358-1.105.6.6,0,0,0,.555-.3.8.8,0,0,1,.748-.389,2.048,2.048,0,0,1,.983.286.9.9,0,0,0,.521.179,1.615,1.615,0,0,1-.319-.529.284.284,0,0,0-.408-.224.582.582,0,0,1-.172.016c-.267,0-.562.069-.742-.209s-.024-.538.107-.784c.36-.676.8-1.3,1.222-1.939.085-.129.1-.209-.056-.292a14.263,14.263,0,0,0-1.392-.688,1.73,1.73,0,0,0-1.014-.1,1.521,1.521,0,0,1-1.217-.127.533.533,0,0,0-.648,0,3.053,3.053,0,0,1-2.932.114,1.406,1.406,0,0,1-.827-.95,1.142,1.142,0,0,0-.414-.625,1.331,1.331,0,0,1-.51-.709.745.745,0,0,0-.555-.566,2.96,2.96,0,0,1-.34-.145,2.227,2.227,0,0,1-1.252-1.29c-.038-.108-.091-.212-.135-.318a1.1,1.1,0,0,0-.538-.585,2.655,2.655,0,0,1-.6-.384.8.8,0,0,0-.913-.23A1.209,1.209,0,0,1,3005.456,602.778Z" transform="translate(-2988.824 -601.481)" fill="#6cc24a" stroke="#6cc24a" stroke-width="1.25"/>
</svg>
