<svg xmlns="http://www.w3.org/2000/svg" width="36.4" height="38.554" viewBox="0 0 36.4 38.554">
  <g id="Grupo_13838" data-name="Grupo 13838" transform="translate(-1011.484 -1117.022)">
    <path id="Trazado_5563" data-name="Trazado 5563" d="M1021.433,1195.6v-4.261c-.149,0-.281-.007-.412,0a8.956,8.956,0,0,1-8.772-4.614c-.183-.3-.356-.615-.525-.929a2.046,2.046,0,0,1,.529-2.562l.307-.246c1-.8,1.99-1.608,3-2.395a7.437,7.437,0,0,1,5.553-1.621c.1.01.193,0,.309,0v-4.564h-2.106a1.639,1.639,0,0,1-1.639-1.646q0-.3,0-.6c0-.065.064-.133.106-.194,1.78-2.572,4.825-6.962,6.543-9.433a1.551,1.551,0,0,1,2.548,0c1.707,2.46,4.723,6.812,6.456,9.33a1.23,1.23,0,0,1,.2.617c0,.064,0,.128.007.192a1.641,1.641,0,0,1-1.638,1.692h-2.113c-.01.162-.025.283-.025.4q0,10.4,0,20.81v0a.332.332,0,0,1-.331.332h-7.675A.32.32,0,0,1,1021.433,1195.6Zm5.279-10.787-1.1-.877-1.13-.907a4.2,4.2,0,0,1-4.112,4.2,4.054,4.054,0,0,1-2.648-.908,4.212,4.212,0,0,1-1.58-3.29l-2.324,1.858c.157.286.291.541.434.79a6.856,6.856,0,0,0,9.535,2.427A9.216,9.216,0,0,0,1026.712,1184.808Zm-4.52-1.752a1.884,1.884,0,1,0-1.869,1.895A1.889,1.889,0,0,0,1022.192,1183.057Z" transform="translate(0 -40.339)" fill="#6cc24a"/>
    <path id="Trazado_5564" data-name="Trazado 5564" d="M1219.7,1318.478v-7.226h-2.016a1.752,1.752,0,0,1-1.753-1.764q0-.235.005-.469c0-.087.088-.176.144-.257,1.844-2.666,5.1-7.362,6.753-9.738a1.241,1.241,0,0,1,2.039,0c1.7,2.458,5.056,7.3,6.694,9.681a1.309,1.309,0,0,1,.2.654c0,.023,0,.045,0,.068a1.75,1.75,0,0,1-1.752,1.814H1228v.488q0,3.31,0,6.62c0,.045,0,.091,0,.136a.322.322,0,0,1-.32.314h-7.652A.32.32,0,0,1,1219.7,1318.478Z" transform="translate(-183.892 -163.221)" fill="#6cc24a"/>
    <path id="Trazado_5565" data-name="Trazado 5565" d="M1228.333,1131.114a1.857,1.857,0,0,1-2.27-.015,45.976,45.976,0,0,1-3.629-3.017,8.973,8.973,0,0,1-2.742-6.819,4.026,4.026,0,0,1,2.619-3.871,4.115,4.115,0,0,1,4.63.864,2.367,2.367,0,0,1,.249.322,4.6,4.6,0,0,1,2.251-1.4,4.277,4.277,0,0,1,5.334,4.211,9.651,9.651,0,0,1-3.775,7.655C1230.131,1129.743,1229.243,1130.419,1228.333,1131.114Zm-1.527-2.337a.7.7,0,0,0,.849,0c.771-.588,1.542-1.151,2.257-1.776a7.311,7.311,0,0,0,2.593-5.662,2.007,2.007,0,0,0-3.7-1.1c-.241.366-.457.749-.684,1.124l-.494.817a.462.462,0,0,1-.791,0c-.363-.6-.883-1.459-1.179-1.924a2.008,2.008,0,0,0-3.711,1.1,7.334,7.334,0,0,0,2.664,5.7C1225.311,1127.656,1226.052,1128.2,1226.807,1128.777Z" transform="translate(-187.274)" fill="#6cc24a"/>
  </g>
</svg>
