<svg xmlns="http://www.w3.org/2000/svg" width="37.302" height="37.312" viewBox="0 0 37.302 37.312">
  <g id="Grupo_13837" data-name="Grupo 13837" transform="translate(-1086.591 -689.725)">
    <path id="Trazado_5557" data-name="Trazado 5557" d="M1288.986,719.856c.845-.847,1.688-1.7,2.537-2.541a2.011,2.011,0,0,1,2.115-.551,2.061,2.061,0,0,1,.97,3.308c-.113.134-.239.256-.363.38l-5.722,5.722a2.118,2.118,0,0,1-3.4.012q-2.946-2.947-5.892-5.9a2.062,2.062,0,0,1,.878-3.527,2,2,0,0,1,2.006.557c.748.74,1.489,1.487,2.234,2.229.1.1.208.2.392.369v-.59q0-13.636,0-27.271a2.117,2.117,0,0,1,1.523-2.255,2.055,2.055,0,0,1,2.588,1.662,5,5,0,0,1,.042.725q0,13.555,0,27.11v.518Z" transform="translate(-171.206)" fill="#6cc24a"/>
    <path id="Trazado_5558" data-name="Trazado 5558" d="M1095.967,885.485h-.438c-2.266,0-4.532.005-6.8,0a2.09,2.09,0,0,1-2.01-1.361,1.983,1.983,0,0,1,.607-2.268,4.575,4.575,0,0,1,1.164-.5,1.076,1.076,0,0,1,.362-.016q6.01,0,12.019,0a3,3,0,0,1,.761.074,2.056,2.056,0,0,1,1.088,3.267,5.017,5.017,0,0,1-.412.445q-4.1,4.107-8.214,8.211a3.093,3.093,0,0,1-.388.284l.074.138h.416c2.28,0,4.559-.01,6.839,0a2.064,2.064,0,0,1,2.016,2.748,1.978,1.978,0,0,1-1.776,1.381,2.346,2.346,0,0,1-.242.011q-6.131,0-12.262,0a2.009,2.009,0,0,1-1.925-1.1,1.986,1.986,0,0,1,.2-2.241,4.2,4.2,0,0,1,.412-.445q4.1-4.108,8.214-8.211a3.1,3.1,0,0,1,.388-.285Z" transform="translate(0 -170.887)" fill="#6cc24a"/>
    <path id="Trazado_5559" data-name="Trazado 5559" d="M1094.965,690.6a2.07,2.07,0,0,1,1.931,1.153q3.1,6.151,6.158,12.317a2.064,2.064,0,0,1-.921,2.8,1.992,1.992,0,0,1-2.766-.955,1.359,1.359,0,0,0-1.553-.915c-2.115.054-4.233.023-6.349.013-.276,0-.457.053-.551.337a3.907,3.907,0,0,1-.282.58,2.069,2.069,0,1,1-3.7-1.849c.945-1.921,1.911-3.831,2.868-5.745q1.625-3.251,3.251-6.5A2.114,2.114,0,0,1,1094.965,690.6Zm-1.791,10.232h3.621l-1.813-3.617Z" transform="translate(-0.1 -0.78)" fill="#6cc24a"/>
  </g>
</svg>
